<mxfile host="app.diagrams.net" modified="2023-08-31T05:34:10.783Z" agent="Mozilla/5.0 (Windows NT 10.0; Win64; x64) AppleWebKit/537.36 (KHTML, like Gecko) Chrome/116.0.0.0 Safari/537.36" etag="S2kqd5nSK_CYYvuU-Qk3" version="21.7.1" type="device" pages="4">
  <diagram name="Admin_Flow" id="fK4kRIc71SpqxYpEUrST">
    <mxGraphModel dx="2919" dy="1022" grid="1" gridSize="10" guides="1" tooltips="1" connect="1" arrows="1" fold="1" page="1" pageScale="1" pageWidth="1169" pageHeight="827" math="0" shadow="0">
      <root>
        <mxCell id="0" />
        <mxCell id="1" parent="0" />
        <mxCell id="NOQc48WXprzsHyCWPHIX-26" value="" style="rounded=0;whiteSpace=wrap;html=1;fillColor=none;labelBackgroundColor=none;" vertex="1" parent="1">
          <mxGeometry x="-400" y="40" width="480" height="650" as="geometry" />
        </mxCell>
        <mxCell id="NOQc48WXprzsHyCWPHIX-27" value="" style="rounded=0;whiteSpace=wrap;html=1;fillColor=none;labelBackgroundColor=none;" vertex="1" parent="1">
          <mxGeometry x="-690" y="770" width="200" height="510" as="geometry" />
        </mxCell>
        <mxCell id="NN7qOwq4LlQbjLQY-MSL-6" style="edgeStyle=orthogonalEdgeStyle;rounded=0;orthogonalLoop=1;jettySize=auto;html=1;exitX=0.5;exitY=1;exitDx=0;exitDy=0;exitPerimeter=0;entryX=0.5;entryY=0;entryDx=0;entryDy=0;labelBackgroundColor=none;fontColor=default;" parent="1" source="fynLyEPH2XSRe-7DX47A-1" target="fynLyEPH2XSRe-7DX47A-2" edge="1">
          <mxGeometry relative="1" as="geometry" />
        </mxCell>
        <mxCell id="fynLyEPH2XSRe-7DX47A-1" value="Start" style="strokeWidth=2;html=1;shape=mxgraph.flowchart.start_1;whiteSpace=wrap;labelBackgroundColor=none;" parent="1" vertex="1">
          <mxGeometry x="-170" y="110" width="100" height="60" as="geometry" />
        </mxCell>
        <mxCell id="NN7qOwq4LlQbjLQY-MSL-7" style="edgeStyle=orthogonalEdgeStyle;rounded=0;orthogonalLoop=1;jettySize=auto;html=1;exitX=0.5;exitY=1;exitDx=0;exitDy=0;entryX=0.5;entryY=0;entryDx=0;entryDy=0;entryPerimeter=0;labelBackgroundColor=none;fontColor=default;" parent="1" source="fynLyEPH2XSRe-7DX47A-2" target="fynLyEPH2XSRe-7DX47A-3" edge="1">
          <mxGeometry relative="1" as="geometry" />
        </mxCell>
        <mxCell id="fynLyEPH2XSRe-7DX47A-2" value="Click Logout Confirmation" style="rounded=1;whiteSpace=wrap;html=1;absoluteArcSize=1;arcSize=14;strokeWidth=2;labelBackgroundColor=none;" parent="1" vertex="1">
          <mxGeometry x="-170" y="200" width="100" height="100" as="geometry" />
        </mxCell>
        <mxCell id="NN7qOwq4LlQbjLQY-MSL-8" style="edgeStyle=orthogonalEdgeStyle;rounded=0;orthogonalLoop=1;jettySize=auto;html=1;exitX=0.5;exitY=1;exitDx=0;exitDy=0;exitPerimeter=0;entryX=0.5;entryY=0;entryDx=0;entryDy=0;labelBackgroundColor=none;fontColor=default;" parent="1" source="fynLyEPH2XSRe-7DX47A-3" target="fynLyEPH2XSRe-7DX47A-4" edge="1">
          <mxGeometry relative="1" as="geometry" />
        </mxCell>
        <mxCell id="NOQc48WXprzsHyCWPHIX-13" value="" style="edgeStyle=orthogonalEdgeStyle;rounded=0;orthogonalLoop=1;jettySize=auto;html=1;labelBackgroundColor=none;fontColor=default;" edge="1" parent="1" source="fynLyEPH2XSRe-7DX47A-3" target="NOQc48WXprzsHyCWPHIX-12">
          <mxGeometry relative="1" as="geometry" />
        </mxCell>
        <mxCell id="fynLyEPH2XSRe-7DX47A-3" value="Logout confirmed?" style="strokeWidth=2;html=1;shape=mxgraph.flowchart.decision;whiteSpace=wrap;labelBackgroundColor=none;" parent="1" vertex="1">
          <mxGeometry x="-170" y="330" width="100" height="100" as="geometry" />
        </mxCell>
        <mxCell id="NOQc48WXprzsHyCWPHIX-46" value="" style="edgeStyle=orthogonalEdgeStyle;rounded=0;orthogonalLoop=1;jettySize=auto;html=1;labelBackgroundColor=none;fontColor=default;" edge="1" parent="1" source="fynLyEPH2XSRe-7DX47A-4" target="NOQc48WXprzsHyCWPHIX-45">
          <mxGeometry relative="1" as="geometry" />
        </mxCell>
        <mxCell id="fynLyEPH2XSRe-7DX47A-4" value="Logged out" style="rounded=1;whiteSpace=wrap;html=1;absoluteArcSize=1;arcSize=14;strokeWidth=2;labelBackgroundColor=none;" parent="1" vertex="1">
          <mxGeometry x="-170" y="470" width="100" height="100" as="geometry" />
        </mxCell>
        <mxCell id="NN7qOwq4LlQbjLQY-MSL-10" style="edgeStyle=orthogonalEdgeStyle;rounded=0;orthogonalLoop=1;jettySize=auto;html=1;exitX=0.5;exitY=1;exitDx=0;exitDy=0;exitPerimeter=0;entryX=0.5;entryY=0;entryDx=0;entryDy=0;labelBackgroundColor=none;fontColor=default;" parent="1" source="fynLyEPH2XSRe-7DX47A-5" target="fynLyEPH2XSRe-7DX47A-6" edge="1">
          <mxGeometry relative="1" as="geometry" />
        </mxCell>
        <mxCell id="fynLyEPH2XSRe-7DX47A-5" value="Start" style="strokeWidth=2;html=1;shape=mxgraph.flowchart.start_1;whiteSpace=wrap;labelBackgroundColor=none;" parent="1" vertex="1">
          <mxGeometry x="330" y="803" width="100" height="60" as="geometry" />
        </mxCell>
        <mxCell id="NN7qOwq4LlQbjLQY-MSL-11" style="edgeStyle=orthogonalEdgeStyle;rounded=0;orthogonalLoop=1;jettySize=auto;html=1;exitX=0.5;exitY=1;exitDx=0;exitDy=0;entryX=0.5;entryY=0;entryDx=0;entryDy=0;entryPerimeter=0;labelBackgroundColor=none;fontColor=default;" parent="1" source="fynLyEPH2XSRe-7DX47A-6" target="fynLyEPH2XSRe-7DX47A-7" edge="1">
          <mxGeometry relative="1" as="geometry" />
        </mxCell>
        <mxCell id="fynLyEPH2XSRe-7DX47A-6" value="Enter Room Details" style="rounded=1;whiteSpace=wrap;html=1;absoluteArcSize=1;arcSize=14;strokeWidth=2;labelBackgroundColor=none;" parent="1" vertex="1">
          <mxGeometry x="330" y="893" width="100" height="100" as="geometry" />
        </mxCell>
        <mxCell id="NN7qOwq4LlQbjLQY-MSL-12" style="edgeStyle=orthogonalEdgeStyle;rounded=0;orthogonalLoop=1;jettySize=auto;html=1;exitX=0.5;exitY=1;exitDx=0;exitDy=0;exitPerimeter=0;entryX=0.5;entryY=0;entryDx=0;entryDy=0;labelBackgroundColor=none;fontColor=default;" parent="1" source="fynLyEPH2XSRe-7DX47A-7" target="fynLyEPH2XSRe-7DX47A-8" edge="1">
          <mxGeometry relative="1" as="geometry" />
        </mxCell>
        <mxCell id="NOQc48WXprzsHyCWPHIX-59" value="" style="edgeStyle=orthogonalEdgeStyle;rounded=0;orthogonalLoop=1;jettySize=auto;html=1;labelBackgroundColor=none;fontColor=default;" edge="1" parent="1" source="fynLyEPH2XSRe-7DX47A-7" target="NOQc48WXprzsHyCWPHIX-58">
          <mxGeometry relative="1" as="geometry" />
        </mxCell>
        <mxCell id="fynLyEPH2XSRe-7DX47A-7" value="Room Details Validated?" style="strokeWidth=2;html=1;shape=mxgraph.flowchart.decision;whiteSpace=wrap;labelBackgroundColor=none;" parent="1" vertex="1">
          <mxGeometry x="330" y="1033" width="100" height="100" as="geometry" />
        </mxCell>
        <mxCell id="NOQc48WXprzsHyCWPHIX-61" value="" style="edgeStyle=orthogonalEdgeStyle;rounded=0;orthogonalLoop=1;jettySize=auto;html=1;labelBackgroundColor=none;fontColor=default;" edge="1" parent="1" source="fynLyEPH2XSRe-7DX47A-8" target="NOQc48WXprzsHyCWPHIX-60">
          <mxGeometry relative="1" as="geometry" />
        </mxCell>
        <mxCell id="fynLyEPH2XSRe-7DX47A-8" value="Room Created" style="rounded=1;whiteSpace=wrap;html=1;absoluteArcSize=1;arcSize=14;strokeWidth=2;labelBackgroundColor=none;" parent="1" vertex="1">
          <mxGeometry x="330" y="1163" width="100" height="100" as="geometry" />
        </mxCell>
        <mxCell id="NN7qOwq4LlQbjLQY-MSL-14" style="edgeStyle=orthogonalEdgeStyle;rounded=0;orthogonalLoop=1;jettySize=auto;html=1;exitX=0.5;exitY=1;exitDx=0;exitDy=0;exitPerimeter=0;entryX=0.5;entryY=0;entryDx=0;entryDy=0;labelBackgroundColor=none;fontColor=default;" parent="1" source="fynLyEPH2XSRe-7DX47A-9" target="fynLyEPH2XSRe-7DX47A-10" edge="1">
          <mxGeometry relative="1" as="geometry" />
        </mxCell>
        <mxCell id="fynLyEPH2XSRe-7DX47A-9" value="Start" style="strokeWidth=2;html=1;shape=mxgraph.flowchart.start_1;whiteSpace=wrap;labelBackgroundColor=none;" parent="1" vertex="1">
          <mxGeometry x="650" y="803" width="100" height="60" as="geometry" />
        </mxCell>
        <mxCell id="NOQc48WXprzsHyCWPHIX-73" value="" style="edgeStyle=orthogonalEdgeStyle;rounded=0;orthogonalLoop=1;jettySize=auto;html=1;labelBackgroundColor=none;fontColor=default;" edge="1" parent="1" source="fynLyEPH2XSRe-7DX47A-10" target="NOQc48WXprzsHyCWPHIX-72">
          <mxGeometry relative="1" as="geometry" />
        </mxCell>
        <mxCell id="fynLyEPH2XSRe-7DX47A-10" value="Choose Room" style="rounded=1;whiteSpace=wrap;html=1;absoluteArcSize=1;arcSize=14;strokeWidth=2;labelBackgroundColor=none;" parent="1" vertex="1">
          <mxGeometry x="650" y="893" width="100" height="100" as="geometry" />
        </mxCell>
        <mxCell id="NOQc48WXprzsHyCWPHIX-76" value="" style="edgeStyle=orthogonalEdgeStyle;rounded=0;orthogonalLoop=1;jettySize=auto;html=1;labelBackgroundColor=none;fontColor=default;" edge="1" parent="1" source="NN7qOwq4LlQbjLQY-MSL-1" target="NOQc48WXprzsHyCWPHIX-75">
          <mxGeometry relative="1" as="geometry" />
        </mxCell>
        <mxCell id="NN7qOwq4LlQbjLQY-MSL-1" value="Room Deleted" style="rounded=1;whiteSpace=wrap;html=1;absoluteArcSize=1;arcSize=14;strokeWidth=2;labelBackgroundColor=none;" parent="1" vertex="1">
          <mxGeometry x="650" y="1163" width="100" height="100" as="geometry" />
        </mxCell>
        <mxCell id="NN7qOwq4LlQbjLQY-MSL-20" value="Logout" style="text;html=1;strokeColor=none;fillColor=none;align=center;verticalAlign=middle;whiteSpace=wrap;rounded=0;labelBackgroundColor=none;" parent="1" vertex="1">
          <mxGeometry x="-150" y="60" width="60" height="30" as="geometry" />
        </mxCell>
        <mxCell id="NN7qOwq4LlQbjLQY-MSL-21" value="Create Room" style="text;html=1;strokeColor=none;fillColor=none;align=center;verticalAlign=middle;whiteSpace=wrap;rounded=0;labelBackgroundColor=none;" parent="1" vertex="1">
          <mxGeometry x="350" y="753" width="60" height="30" as="geometry" />
        </mxCell>
        <mxCell id="NN7qOwq4LlQbjLQY-MSL-22" value="Delete Room" style="text;html=1;strokeColor=none;fillColor=none;align=center;verticalAlign=middle;whiteSpace=wrap;rounded=0;labelBackgroundColor=none;" parent="1" vertex="1">
          <mxGeometry x="665" y="753" width="60" height="30" as="geometry" />
        </mxCell>
        <mxCell id="PbpJ5sOCuzjCAaf_FsM3-1" style="edgeStyle=orthogonalEdgeStyle;rounded=0;orthogonalLoop=1;jettySize=auto;html=1;exitX=0.5;exitY=1;exitDx=0;exitDy=0;exitPerimeter=0;entryX=0.5;entryY=0;entryDx=0;entryDy=0;labelBackgroundColor=none;fontColor=default;" parent="1" source="PbpJ5sOCuzjCAaf_FsM3-2" target="PbpJ5sOCuzjCAaf_FsM3-4" edge="1">
          <mxGeometry relative="1" as="geometry" />
        </mxCell>
        <mxCell id="PbpJ5sOCuzjCAaf_FsM3-2" value="Mulai" style="strokeWidth=2;html=1;shape=mxgraph.flowchart.start_1;whiteSpace=wrap;labelBackgroundColor=none;" parent="1" vertex="1">
          <mxGeometry x="840" y="120" width="100" height="60" as="geometry" />
        </mxCell>
        <mxCell id="PbpJ5sOCuzjCAaf_FsM3-3" style="edgeStyle=orthogonalEdgeStyle;rounded=0;orthogonalLoop=1;jettySize=auto;html=1;exitX=0.5;exitY=1;exitDx=0;exitDy=0;entryX=0.5;entryY=0;entryDx=0;entryDy=0;entryPerimeter=0;labelBackgroundColor=none;fontColor=default;" parent="1" source="PbpJ5sOCuzjCAaf_FsM3-4" target="PbpJ5sOCuzjCAaf_FsM3-7" edge="1">
          <mxGeometry relative="1" as="geometry" />
        </mxCell>
        <mxCell id="PbpJ5sOCuzjCAaf_FsM3-4" value="Pilih Ruangan, Hari, tanggal, Jam" style="rounded=1;whiteSpace=wrap;html=1;absoluteArcSize=1;arcSize=14;strokeWidth=2;labelBackgroundColor=none;" parent="1" vertex="1">
          <mxGeometry x="840" y="210" width="100" height="100" as="geometry" />
        </mxCell>
        <mxCell id="PbpJ5sOCuzjCAaf_FsM3-5" style="edgeStyle=orthogonalEdgeStyle;rounded=0;orthogonalLoop=1;jettySize=auto;html=1;exitX=0.5;exitY=1;exitDx=0;exitDy=0;exitPerimeter=0;entryX=0.5;entryY=0;entryDx=0;entryDy=0;labelBackgroundColor=none;fontColor=default;" parent="1" source="PbpJ5sOCuzjCAaf_FsM3-7" target="PbpJ5sOCuzjCAaf_FsM3-8" edge="1">
          <mxGeometry relative="1" as="geometry" />
        </mxCell>
        <mxCell id="PbpJ5sOCuzjCAaf_FsM3-6" style="edgeStyle=orthogonalEdgeStyle;rounded=0;orthogonalLoop=1;jettySize=auto;html=1;exitX=1;exitY=0.5;exitDx=0;exitDy=0;exitPerimeter=0;entryX=1;entryY=0.5;entryDx=0;entryDy=0;labelBackgroundColor=none;fontColor=default;" parent="1" source="PbpJ5sOCuzjCAaf_FsM3-7" target="PbpJ5sOCuzjCAaf_FsM3-4" edge="1">
          <mxGeometry relative="1" as="geometry" />
        </mxCell>
        <mxCell id="PbpJ5sOCuzjCAaf_FsM3-7" value="Ruangan tersedia?" style="strokeWidth=2;html=1;shape=mxgraph.flowchart.decision;whiteSpace=wrap;labelBackgroundColor=none;" parent="1" vertex="1">
          <mxGeometry x="840" y="340" width="100" height="100" as="geometry" />
        </mxCell>
        <mxCell id="PbpJ5sOCuzjCAaf_FsM3-8" value="Booking Ruangan" style="rounded=1;whiteSpace=wrap;html=1;absoluteArcSize=1;arcSize=14;strokeWidth=2;labelBackgroundColor=none;" parent="1" vertex="1">
          <mxGeometry x="840" y="480" width="100" height="100" as="geometry" />
        </mxCell>
        <mxCell id="PbpJ5sOCuzjCAaf_FsM3-9" style="edgeStyle=orthogonalEdgeStyle;rounded=0;orthogonalLoop=1;jettySize=auto;html=1;exitX=0.5;exitY=1;exitDx=0;exitDy=0;exitPerimeter=0;entryX=0.5;entryY=0;entryDx=0;entryDy=0;labelBackgroundColor=none;fontColor=default;" parent="1" source="PbpJ5sOCuzjCAaf_FsM3-10" target="PbpJ5sOCuzjCAaf_FsM3-12" edge="1">
          <mxGeometry relative="1" as="geometry" />
        </mxCell>
        <mxCell id="PbpJ5sOCuzjCAaf_FsM3-10" value="Mulai" style="strokeWidth=2;html=1;shape=mxgraph.flowchart.start_1;whiteSpace=wrap;labelBackgroundColor=none;" parent="1" vertex="1">
          <mxGeometry x="1000" y="120" width="100" height="60" as="geometry" />
        </mxCell>
        <mxCell id="PbpJ5sOCuzjCAaf_FsM3-11" style="edgeStyle=orthogonalEdgeStyle;rounded=0;orthogonalLoop=1;jettySize=auto;html=1;exitX=0.5;exitY=1;exitDx=0;exitDy=0;entryX=0.5;entryY=0;entryDx=0;entryDy=0;entryPerimeter=0;labelBackgroundColor=none;fontColor=default;" parent="1" source="PbpJ5sOCuzjCAaf_FsM3-12" target="PbpJ5sOCuzjCAaf_FsM3-15" edge="1">
          <mxGeometry relative="1" as="geometry" />
        </mxCell>
        <mxCell id="PbpJ5sOCuzjCAaf_FsM3-12" value="Masukan Kata kunci" style="rounded=1;whiteSpace=wrap;html=1;absoluteArcSize=1;arcSize=14;strokeWidth=2;labelBackgroundColor=none;" parent="1" vertex="1">
          <mxGeometry x="1000" y="210" width="100" height="100" as="geometry" />
        </mxCell>
        <mxCell id="PbpJ5sOCuzjCAaf_FsM3-13" style="edgeStyle=orthogonalEdgeStyle;rounded=0;orthogonalLoop=1;jettySize=auto;html=1;exitX=0.5;exitY=1;exitDx=0;exitDy=0;exitPerimeter=0;entryX=0.5;entryY=0;entryDx=0;entryDy=0;labelBackgroundColor=none;fontColor=default;" parent="1" source="PbpJ5sOCuzjCAaf_FsM3-15" target="PbpJ5sOCuzjCAaf_FsM3-16" edge="1">
          <mxGeometry relative="1" as="geometry" />
        </mxCell>
        <mxCell id="PbpJ5sOCuzjCAaf_FsM3-14" style="edgeStyle=orthogonalEdgeStyle;rounded=0;orthogonalLoop=1;jettySize=auto;html=1;exitX=1;exitY=0.5;exitDx=0;exitDy=0;exitPerimeter=0;entryX=1;entryY=0.5;entryDx=0;entryDy=0;labelBackgroundColor=none;fontColor=default;" parent="1" source="PbpJ5sOCuzjCAaf_FsM3-15" target="PbpJ5sOCuzjCAaf_FsM3-12" edge="1">
          <mxGeometry relative="1" as="geometry" />
        </mxCell>
        <mxCell id="PbpJ5sOCuzjCAaf_FsM3-15" value="kata kunci sesuai?" style="strokeWidth=2;html=1;shape=mxgraph.flowchart.decision;whiteSpace=wrap;labelBackgroundColor=none;" parent="1" vertex="1">
          <mxGeometry x="1000" y="340" width="100" height="100" as="geometry" />
        </mxCell>
        <mxCell id="PbpJ5sOCuzjCAaf_FsM3-16" value="Tampilkan Hasil" style="rounded=1;whiteSpace=wrap;html=1;absoluteArcSize=1;arcSize=14;strokeWidth=2;labelBackgroundColor=none;" parent="1" vertex="1">
          <mxGeometry x="1000" y="480" width="100" height="100" as="geometry" />
        </mxCell>
        <mxCell id="PbpJ5sOCuzjCAaf_FsM3-17" value="Booking Ruangan" style="text;html=1;strokeColor=none;fillColor=none;align=center;verticalAlign=middle;whiteSpace=wrap;rounded=0;labelBackgroundColor=none;" parent="1" vertex="1">
          <mxGeometry x="860" y="70" width="60" height="30" as="geometry" />
        </mxCell>
        <mxCell id="PbpJ5sOCuzjCAaf_FsM3-18" value="Cari Ruangan" style="text;html=1;strokeColor=none;fillColor=none;align=center;verticalAlign=middle;whiteSpace=wrap;rounded=0;labelBackgroundColor=none;" parent="1" vertex="1">
          <mxGeometry x="1020" y="70" width="60" height="30" as="geometry" />
        </mxCell>
        <mxCell id="yD2ZVCr7FEjKueW24XNk-1" value="Yes" style="text;html=1;strokeColor=none;fillColor=none;align=center;verticalAlign=middle;whiteSpace=wrap;rounded=0;labelBackgroundColor=none;" parent="1" vertex="1">
          <mxGeometry x="-120" y="430" width="60" height="30" as="geometry" />
        </mxCell>
        <mxCell id="yD2ZVCr7FEjKueW24XNk-2" value="Yes" style="text;html=1;strokeColor=none;fillColor=none;align=center;verticalAlign=middle;whiteSpace=wrap;rounded=0;labelBackgroundColor=none;" parent="1" vertex="1">
          <mxGeometry x="370" y="1133" width="60" height="30" as="geometry" />
        </mxCell>
        <mxCell id="yD2ZVCr7FEjKueW24XNk-3" value="Yes" style="text;html=1;strokeColor=none;fillColor=none;align=center;verticalAlign=middle;whiteSpace=wrap;rounded=0;labelBackgroundColor=none;" parent="1" vertex="1">
          <mxGeometry x="880" y="450" width="60" height="30" as="geometry" />
        </mxCell>
        <mxCell id="yD2ZVCr7FEjKueW24XNk-4" value="Yes" style="text;html=1;strokeColor=none;fillColor=none;align=center;verticalAlign=middle;whiteSpace=wrap;rounded=0;labelBackgroundColor=none;" parent="1" vertex="1">
          <mxGeometry x="1050" y="450" width="60" height="30" as="geometry" />
        </mxCell>
        <mxCell id="yD2ZVCr7FEjKueW24XNk-5" value="No" style="text;html=1;strokeColor=none;fillColor=none;align=center;verticalAlign=middle;whiteSpace=wrap;rounded=0;labelBackgroundColor=none;" parent="1" vertex="1">
          <mxGeometry x="-100" y="330" width="60" height="30" as="geometry" />
        </mxCell>
        <mxCell id="yD2ZVCr7FEjKueW24XNk-6" value="No" style="text;html=1;strokeColor=none;fillColor=none;align=center;verticalAlign=middle;whiteSpace=wrap;rounded=0;labelBackgroundColor=none;" parent="1" vertex="1">
          <mxGeometry x="410" y="1053" width="60" height="30" as="geometry" />
        </mxCell>
        <mxCell id="yD2ZVCr7FEjKueW24XNk-7" value="No" style="text;html=1;strokeColor=none;fillColor=none;align=center;verticalAlign=middle;whiteSpace=wrap;rounded=0;labelBackgroundColor=none;" parent="1" vertex="1">
          <mxGeometry x="910" y="340" width="60" height="30" as="geometry" />
        </mxCell>
        <mxCell id="yD2ZVCr7FEjKueW24XNk-8" value="No" style="text;html=1;strokeColor=none;fillColor=none;align=center;verticalAlign=middle;whiteSpace=wrap;rounded=0;labelBackgroundColor=none;" parent="1" vertex="1">
          <mxGeometry x="1070" y="350" width="60" height="30" as="geometry" />
        </mxCell>
        <mxCell id="NOQc48WXprzsHyCWPHIX-1" style="edgeStyle=orthogonalEdgeStyle;rounded=0;orthogonalLoop=1;jettySize=auto;html=1;exitX=0.5;exitY=1;exitDx=0;exitDy=0;exitPerimeter=0;entryX=0.5;entryY=0;entryDx=0;entryDy=0;labelBackgroundColor=none;fontColor=default;" edge="1" parent="1" source="NOQc48WXprzsHyCWPHIX-2" target="NOQc48WXprzsHyCWPHIX-4">
          <mxGeometry relative="1" as="geometry" />
        </mxCell>
        <mxCell id="NOQc48WXprzsHyCWPHIX-2" value="Start" style="strokeWidth=2;html=1;shape=mxgraph.flowchart.start_1;whiteSpace=wrap;labelBackgroundColor=none;" vertex="1" parent="1">
          <mxGeometry x="-350" y="110" width="100" height="60" as="geometry" />
        </mxCell>
        <mxCell id="NOQc48WXprzsHyCWPHIX-3" style="edgeStyle=orthogonalEdgeStyle;rounded=0;orthogonalLoop=1;jettySize=auto;html=1;exitX=0.5;exitY=1;exitDx=0;exitDy=0;entryX=0.5;entryY=0;entryDx=0;entryDy=0;entryPerimeter=0;labelBackgroundColor=none;fontColor=default;" edge="1" parent="1" source="NOQc48WXprzsHyCWPHIX-4" target="NOQc48WXprzsHyCWPHIX-7">
          <mxGeometry relative="1" as="geometry" />
        </mxCell>
        <mxCell id="NOQc48WXprzsHyCWPHIX-4" value="Enter Email dan Password" style="rounded=1;whiteSpace=wrap;html=1;absoluteArcSize=1;arcSize=14;strokeWidth=2;labelBackgroundColor=none;" vertex="1" parent="1">
          <mxGeometry x="-350" y="200" width="100" height="100" as="geometry" />
        </mxCell>
        <mxCell id="NOQc48WXprzsHyCWPHIX-5" style="edgeStyle=orthogonalEdgeStyle;rounded=0;orthogonalLoop=1;jettySize=auto;html=1;exitX=0.5;exitY=1;exitDx=0;exitDy=0;exitPerimeter=0;entryX=0.5;entryY=0;entryDx=0;entryDy=0;labelBackgroundColor=none;fontColor=default;" edge="1" parent="1" source="NOQc48WXprzsHyCWPHIX-7" target="NOQc48WXprzsHyCWPHIX-8">
          <mxGeometry relative="1" as="geometry" />
        </mxCell>
        <mxCell id="NOQc48WXprzsHyCWPHIX-6" style="edgeStyle=orthogonalEdgeStyle;rounded=0;orthogonalLoop=1;jettySize=auto;html=1;exitX=1;exitY=0.5;exitDx=0;exitDy=0;exitPerimeter=0;entryX=1;entryY=0.5;entryDx=0;entryDy=0;labelBackgroundColor=none;fontColor=default;" edge="1" parent="1" source="NOQc48WXprzsHyCWPHIX-7" target="NOQc48WXprzsHyCWPHIX-4">
          <mxGeometry relative="1" as="geometry" />
        </mxCell>
        <mxCell id="NOQc48WXprzsHyCWPHIX-7" value="Email and PassWord validated?" style="strokeWidth=2;html=1;shape=mxgraph.flowchart.decision;whiteSpace=wrap;labelBackgroundColor=none;" vertex="1" parent="1">
          <mxGeometry x="-350" y="330" width="100" height="100" as="geometry" />
        </mxCell>
        <mxCell id="NOQc48WXprzsHyCWPHIX-44" value="" style="edgeStyle=orthogonalEdgeStyle;rounded=0;orthogonalLoop=1;jettySize=auto;html=1;labelBackgroundColor=none;fontColor=default;" edge="1" parent="1" source="NOQc48WXprzsHyCWPHIX-8" target="NOQc48WXprzsHyCWPHIX-42">
          <mxGeometry relative="1" as="geometry" />
        </mxCell>
        <mxCell id="NOQc48WXprzsHyCWPHIX-8" value="Go Into Admin Home Page" style="rounded=1;whiteSpace=wrap;html=1;absoluteArcSize=1;arcSize=14;strokeWidth=2;labelBackgroundColor=none;" vertex="1" parent="1">
          <mxGeometry x="-350" y="470" width="100" height="100" as="geometry" />
        </mxCell>
        <mxCell id="NOQc48WXprzsHyCWPHIX-9" value="Login" style="text;html=1;strokeColor=none;fillColor=none;align=center;verticalAlign=middle;whiteSpace=wrap;rounded=0;labelBackgroundColor=none;" vertex="1" parent="1">
          <mxGeometry x="-330" y="60" width="60" height="30" as="geometry" />
        </mxCell>
        <mxCell id="NOQc48WXprzsHyCWPHIX-10" value="Yes" style="text;html=1;strokeColor=none;fillColor=none;align=center;verticalAlign=middle;whiteSpace=wrap;rounded=0;labelBackgroundColor=none;" vertex="1" parent="1">
          <mxGeometry x="-300" y="430" width="60" height="30" as="geometry" />
        </mxCell>
        <mxCell id="NOQc48WXprzsHyCWPHIX-11" value="No" style="text;html=1;strokeColor=none;fillColor=none;align=center;verticalAlign=middle;whiteSpace=wrap;rounded=0;labelBackgroundColor=none;" vertex="1" parent="1">
          <mxGeometry x="-280" y="330" width="60" height="30" as="geometry" />
        </mxCell>
        <mxCell id="NOQc48WXprzsHyCWPHIX-12" value="Go Back to Previous Page" style="rounded=1;whiteSpace=wrap;html=1;absoluteArcSize=1;arcSize=14;strokeWidth=2;labelBackgroundColor=none;" vertex="1" parent="1">
          <mxGeometry x="-40" y="330" width="100" height="100" as="geometry" />
        </mxCell>
        <mxCell id="NOQc48WXprzsHyCWPHIX-14" style="edgeStyle=orthogonalEdgeStyle;rounded=0;orthogonalLoop=1;jettySize=auto;html=1;exitX=0.5;exitY=1;exitDx=0;exitDy=0;exitPerimeter=0;entryX=0.5;entryY=0;entryDx=0;entryDy=0;labelBackgroundColor=none;fontColor=default;" edge="1" parent="1" source="NOQc48WXprzsHyCWPHIX-15" target="NOQc48WXprzsHyCWPHIX-17">
          <mxGeometry relative="1" as="geometry" />
        </mxCell>
        <mxCell id="NOQc48WXprzsHyCWPHIX-15" value="Start" style="strokeWidth=2;html=1;shape=mxgraph.flowchart.start_1;whiteSpace=wrap;labelBackgroundColor=none;" vertex="1" parent="1">
          <mxGeometry x="-640" y="840" width="100" height="60" as="geometry" />
        </mxCell>
        <mxCell id="NOQc48WXprzsHyCWPHIX-25" value="" style="edgeStyle=orthogonalEdgeStyle;rounded=0;orthogonalLoop=1;jettySize=auto;html=1;labelBackgroundColor=none;fontColor=default;" edge="1" parent="1" source="NOQc48WXprzsHyCWPHIX-17" target="NOQc48WXprzsHyCWPHIX-21">
          <mxGeometry relative="1" as="geometry" />
        </mxCell>
        <mxCell id="NOQc48WXprzsHyCWPHIX-17" value="Enter Required Profile Identity Form" style="rounded=1;whiteSpace=wrap;html=1;absoluteArcSize=1;arcSize=14;strokeWidth=2;labelBackgroundColor=none;" vertex="1" parent="1">
          <mxGeometry x="-640" y="930" width="100" height="100" as="geometry" />
        </mxCell>
        <mxCell id="NOQc48WXprzsHyCWPHIX-49" value="" style="edgeStyle=orthogonalEdgeStyle;rounded=0;orthogonalLoop=1;jettySize=auto;html=1;labelBackgroundColor=none;fontColor=default;" edge="1" parent="1" source="NOQc48WXprzsHyCWPHIX-21" target="NOQc48WXprzsHyCWPHIX-48">
          <mxGeometry relative="1" as="geometry" />
        </mxCell>
        <mxCell id="NOQc48WXprzsHyCWPHIX-21" value="Update Profile" style="rounded=1;whiteSpace=wrap;html=1;absoluteArcSize=1;arcSize=14;strokeWidth=2;labelBackgroundColor=none;" vertex="1" parent="1">
          <mxGeometry x="-640" y="1070" width="100" height="100" as="geometry" />
        </mxCell>
        <mxCell id="NOQc48WXprzsHyCWPHIX-22" value="Edit Profile" style="text;html=1;strokeColor=none;fillColor=none;align=center;verticalAlign=middle;whiteSpace=wrap;rounded=0;labelBackgroundColor=none;" vertex="1" parent="1">
          <mxGeometry x="-620" y="790" width="60" height="30" as="geometry" />
        </mxCell>
        <mxCell id="NOQc48WXprzsHyCWPHIX-28" style="edgeStyle=orthogonalEdgeStyle;rounded=0;orthogonalLoop=1;jettySize=auto;html=1;exitX=0.5;exitY=1;exitDx=0;exitDy=0;exitPerimeter=0;entryX=0.5;entryY=0;entryDx=0;entryDy=0;labelBackgroundColor=none;fontColor=default;" edge="1" parent="1" source="NOQc48WXprzsHyCWPHIX-29" target="NOQc48WXprzsHyCWPHIX-31">
          <mxGeometry relative="1" as="geometry" />
        </mxCell>
        <mxCell id="NOQc48WXprzsHyCWPHIX-29" value="Start" style="strokeWidth=2;html=1;shape=mxgraph.flowchart.start_1;whiteSpace=wrap;labelBackgroundColor=none;" vertex="1" parent="1">
          <mxGeometry x="-340" y="838.5" width="100" height="60" as="geometry" />
        </mxCell>
        <mxCell id="NOQc48WXprzsHyCWPHIX-64" value="" style="edgeStyle=orthogonalEdgeStyle;rounded=0;orthogonalLoop=1;jettySize=auto;html=1;labelBackgroundColor=none;fontColor=default;" edge="1" parent="1" source="NOQc48WXprzsHyCWPHIX-31" target="NOQc48WXprzsHyCWPHIX-63">
          <mxGeometry relative="1" as="geometry" />
        </mxCell>
        <mxCell id="NOQc48WXprzsHyCWPHIX-31" value="Choose User" style="rounded=1;whiteSpace=wrap;html=1;absoluteArcSize=1;arcSize=14;strokeWidth=2;labelBackgroundColor=none;" vertex="1" parent="1">
          <mxGeometry x="-340" y="928.5" width="100" height="100" as="geometry" />
        </mxCell>
        <mxCell id="NOQc48WXprzsHyCWPHIX-51" value="" style="edgeStyle=orthogonalEdgeStyle;rounded=0;orthogonalLoop=1;jettySize=auto;html=1;labelBackgroundColor=none;fontColor=default;" edge="1" parent="1" source="NOQc48WXprzsHyCWPHIX-32" target="NOQc48WXprzsHyCWPHIX-50">
          <mxGeometry relative="1" as="geometry" />
        </mxCell>
        <mxCell id="NOQc48WXprzsHyCWPHIX-32" value="User Deleted" style="rounded=1;whiteSpace=wrap;html=1;absoluteArcSize=1;arcSize=14;strokeWidth=2;labelBackgroundColor=none;" vertex="1" parent="1">
          <mxGeometry x="-340" y="1200" width="100" height="100" as="geometry" />
        </mxCell>
        <mxCell id="NOQc48WXprzsHyCWPHIX-33" value="Delete User" style="text;html=1;strokeColor=none;fillColor=none;align=center;verticalAlign=middle;whiteSpace=wrap;rounded=0;labelBackgroundColor=none;" vertex="1" parent="1">
          <mxGeometry x="-320" y="788.5" width="60" height="30" as="geometry" />
        </mxCell>
        <mxCell id="NOQc48WXprzsHyCWPHIX-35" style="edgeStyle=orthogonalEdgeStyle;rounded=0;orthogonalLoop=1;jettySize=auto;html=1;exitX=0.5;exitY=1;exitDx=0;exitDy=0;exitPerimeter=0;entryX=0.5;entryY=0;entryDx=0;entryDy=0;labelBackgroundColor=none;fontColor=default;" edge="1" parent="1" source="NOQc48WXprzsHyCWPHIX-36" target="NOQc48WXprzsHyCWPHIX-38">
          <mxGeometry relative="1" as="geometry" />
        </mxCell>
        <mxCell id="NOQc48WXprzsHyCWPHIX-36" value="Start" style="strokeWidth=2;html=1;shape=mxgraph.flowchart.start_1;whiteSpace=wrap;labelBackgroundColor=none;" vertex="1" parent="1">
          <mxGeometry x="-40" y="840" width="100" height="60" as="geometry" />
        </mxCell>
        <mxCell id="NOQc48WXprzsHyCWPHIX-37" style="edgeStyle=orthogonalEdgeStyle;rounded=0;orthogonalLoop=1;jettySize=auto;html=1;exitX=0.5;exitY=1;exitDx=0;exitDy=0;entryX=0.5;entryY=0;entryDx=0;entryDy=0;labelBackgroundColor=none;fontColor=default;" edge="1" parent="1" source="NOQc48WXprzsHyCWPHIX-38">
          <mxGeometry relative="1" as="geometry">
            <mxPoint x="10.000000000000227" y="1070" as="targetPoint" />
          </mxGeometry>
        </mxCell>
        <mxCell id="NOQc48WXprzsHyCWPHIX-38" value="Enter User&#39;s &lt;br&gt;New Role" style="rounded=1;whiteSpace=wrap;html=1;absoluteArcSize=1;arcSize=14;strokeWidth=2;labelBackgroundColor=none;" vertex="1" parent="1">
          <mxGeometry x="-40" y="930" width="100" height="100" as="geometry" />
        </mxCell>
        <mxCell id="NOQc48WXprzsHyCWPHIX-53" value="" style="edgeStyle=orthogonalEdgeStyle;rounded=0;orthogonalLoop=1;jettySize=auto;html=1;labelBackgroundColor=none;fontColor=default;" edge="1" parent="1" source="NOQc48WXprzsHyCWPHIX-39" target="NOQc48WXprzsHyCWPHIX-52">
          <mxGeometry relative="1" as="geometry" />
        </mxCell>
        <mxCell id="NOQc48WXprzsHyCWPHIX-39" value="User Updated" style="rounded=1;whiteSpace=wrap;html=1;absoluteArcSize=1;arcSize=14;strokeWidth=2;labelBackgroundColor=none;" vertex="1" parent="1">
          <mxGeometry x="-40" y="1070" width="100" height="100" as="geometry" />
        </mxCell>
        <mxCell id="NOQc48WXprzsHyCWPHIX-40" value="Edit User Role" style="text;html=1;strokeColor=none;fillColor=none;align=center;verticalAlign=middle;whiteSpace=wrap;rounded=0;labelBackgroundColor=none;" vertex="1" parent="1">
          <mxGeometry x="-20" y="790" width="60" height="30" as="geometry" />
        </mxCell>
        <mxCell id="NOQc48WXprzsHyCWPHIX-42" value="End" style="strokeWidth=2;html=1;shape=mxgraph.flowchart.start_1;whiteSpace=wrap;labelBackgroundColor=none;" vertex="1" parent="1">
          <mxGeometry x="-350" y="605" width="100" height="60" as="geometry" />
        </mxCell>
        <mxCell id="NOQc48WXprzsHyCWPHIX-45" value="End" style="strokeWidth=2;html=1;shape=mxgraph.flowchart.start_1;whiteSpace=wrap;labelBackgroundColor=none;" vertex="1" parent="1">
          <mxGeometry x="-170" y="605" width="100" height="60" as="geometry" />
        </mxCell>
        <mxCell id="NOQc48WXprzsHyCWPHIX-47" value="" style="endArrow=classic;html=1;rounded=0;exitX=0.5;exitY=1;exitDx=0;exitDy=0;entryX=1;entryY=0.5;entryDx=0;entryDy=0;entryPerimeter=0;labelBackgroundColor=none;fontColor=default;" edge="1" parent="1" source="NOQc48WXprzsHyCWPHIX-12" target="NOQc48WXprzsHyCWPHIX-45">
          <mxGeometry width="50" height="50" relative="1" as="geometry">
            <mxPoint x="-200" y="460" as="sourcePoint" />
            <mxPoint x="-150" y="410" as="targetPoint" />
            <Array as="points">
              <mxPoint x="10" y="635" />
            </Array>
          </mxGeometry>
        </mxCell>
        <mxCell id="NOQc48WXprzsHyCWPHIX-48" value="End" style="strokeWidth=2;html=1;shape=mxgraph.flowchart.start_1;whiteSpace=wrap;labelBackgroundColor=none;" vertex="1" parent="1">
          <mxGeometry x="-640" y="1203" width="100" height="60" as="geometry" />
        </mxCell>
        <mxCell id="NOQc48WXprzsHyCWPHIX-50" value="End" style="strokeWidth=2;html=1;shape=mxgraph.flowchart.start_1;whiteSpace=wrap;labelBackgroundColor=none;" vertex="1" parent="1">
          <mxGeometry x="-340" y="1333" width="100" height="60" as="geometry" />
        </mxCell>
        <mxCell id="NOQc48WXprzsHyCWPHIX-52" value="End" style="strokeWidth=2;html=1;shape=mxgraph.flowchart.start_1;whiteSpace=wrap;labelBackgroundColor=none;" vertex="1" parent="1">
          <mxGeometry x="-40" y="1203" width="100" height="60" as="geometry" />
        </mxCell>
        <mxCell id="NOQc48WXprzsHyCWPHIX-55" value="LOGIN - LOGOUT" style="text;html=1;strokeColor=none;fillColor=none;align=center;verticalAlign=middle;whiteSpace=wrap;rounded=0;fontStyle=1;strokeWidth=1;labelBackgroundColor=none;" vertex="1" parent="1">
          <mxGeometry x="-220" y="10" width="120" height="30" as="geometry" />
        </mxCell>
        <mxCell id="NOQc48WXprzsHyCWPHIX-56" value="ACCOUNT" style="text;html=1;strokeColor=none;fillColor=none;align=center;verticalAlign=middle;whiteSpace=wrap;rounded=0;fontStyle=1;strokeWidth=1;labelBackgroundColor=none;" vertex="1" parent="1">
          <mxGeometry x="-650" y="740" width="120" height="30" as="geometry" />
        </mxCell>
        <mxCell id="NOQc48WXprzsHyCWPHIX-57" value="USER LIST (Admin)" style="text;html=1;strokeColor=none;fillColor=none;align=center;verticalAlign=middle;whiteSpace=wrap;rounded=0;fontStyle=1;strokeWidth=1;labelBackgroundColor=none;" vertex="1" parent="1">
          <mxGeometry x="-200" y="740" width="120" height="30" as="geometry" />
        </mxCell>
        <mxCell id="NOQc48WXprzsHyCWPHIX-58" value="Go Back To &lt;br&gt;Room List Page" style="rounded=1;whiteSpace=wrap;html=1;absoluteArcSize=1;arcSize=14;strokeWidth=2;labelBackgroundColor=none;" vertex="1" parent="1">
          <mxGeometry x="475" y="1033" width="100" height="100" as="geometry" />
        </mxCell>
        <mxCell id="NOQc48WXprzsHyCWPHIX-60" value="End" style="strokeWidth=2;html=1;shape=mxgraph.flowchart.start_1;whiteSpace=wrap;labelBackgroundColor=none;" vertex="1" parent="1">
          <mxGeometry x="330" y="1304" width="100" height="60" as="geometry" />
        </mxCell>
        <mxCell id="NOQc48WXprzsHyCWPHIX-62" value="" style="endArrow=classic;html=1;rounded=0;exitX=0.5;exitY=1;exitDx=0;exitDy=0;entryX=1;entryY=0.5;entryDx=0;entryDy=0;entryPerimeter=0;labelBackgroundColor=none;fontColor=default;" edge="1" parent="1" source="NOQc48WXprzsHyCWPHIX-58" target="NOQc48WXprzsHyCWPHIX-60">
          <mxGeometry width="50" height="50" relative="1" as="geometry">
            <mxPoint x="490" y="1203" as="sourcePoint" />
            <mxPoint x="540" y="1153" as="targetPoint" />
            <Array as="points">
              <mxPoint x="525" y="1333" />
            </Array>
          </mxGeometry>
        </mxCell>
        <mxCell id="NOQc48WXprzsHyCWPHIX-65" value="" style="edgeStyle=orthogonalEdgeStyle;rounded=0;orthogonalLoop=1;jettySize=auto;html=1;labelBackgroundColor=none;fontColor=default;" edge="1" parent="1" source="NOQc48WXprzsHyCWPHIX-63" target="NOQc48WXprzsHyCWPHIX-32">
          <mxGeometry relative="1" as="geometry" />
        </mxCell>
        <mxCell id="NOQc48WXprzsHyCWPHIX-68" value="" style="edgeStyle=orthogonalEdgeStyle;rounded=0;orthogonalLoop=1;jettySize=auto;html=1;labelBackgroundColor=none;fontColor=default;" edge="1" parent="1" source="NOQc48WXprzsHyCWPHIX-63" target="NOQc48WXprzsHyCWPHIX-67">
          <mxGeometry relative="1" as="geometry" />
        </mxCell>
        <mxCell id="NOQc48WXprzsHyCWPHIX-63" value="Delete Confirmed?" style="strokeWidth=2;html=1;shape=mxgraph.flowchart.decision;whiteSpace=wrap;labelBackgroundColor=none;" vertex="1" parent="1">
          <mxGeometry x="-340" y="1070" width="100" height="100" as="geometry" />
        </mxCell>
        <mxCell id="NOQc48WXprzsHyCWPHIX-66" value="Yes" style="text;html=1;strokeColor=none;fillColor=none;align=center;verticalAlign=middle;whiteSpace=wrap;rounded=0;labelBackgroundColor=none;" vertex="1" parent="1">
          <mxGeometry x="-300" y="1160" width="60" height="30" as="geometry" />
        </mxCell>
        <mxCell id="NOQc48WXprzsHyCWPHIX-67" value="Go Back To &lt;br&gt;User List Page" style="rounded=1;whiteSpace=wrap;html=1;absoluteArcSize=1;arcSize=14;strokeWidth=2;labelBackgroundColor=none;" vertex="1" parent="1">
          <mxGeometry x="-190" y="1070" width="100" height="100" as="geometry" />
        </mxCell>
        <mxCell id="NOQc48WXprzsHyCWPHIX-69" value="No" style="text;html=1;strokeColor=none;fillColor=none;align=center;verticalAlign=middle;whiteSpace=wrap;rounded=0;labelBackgroundColor=none;" vertex="1" parent="1">
          <mxGeometry x="-250" y="1080" width="60" height="30" as="geometry" />
        </mxCell>
        <mxCell id="NOQc48WXprzsHyCWPHIX-70" value="" style="endArrow=classic;html=1;rounded=0;exitX=0.5;exitY=1;exitDx=0;exitDy=0;entryX=1;entryY=0.5;entryDx=0;entryDy=0;entryPerimeter=0;labelBackgroundColor=none;fontColor=default;" edge="1" parent="1" source="NOQc48WXprzsHyCWPHIX-67" target="NOQc48WXprzsHyCWPHIX-50">
          <mxGeometry width="50" height="50" relative="1" as="geometry">
            <mxPoint x="-100" y="1400" as="sourcePoint" />
            <mxPoint x="-50" y="1350" as="targetPoint" />
            <Array as="points">
              <mxPoint x="-140" y="1363" />
            </Array>
          </mxGeometry>
        </mxCell>
        <mxCell id="NOQc48WXprzsHyCWPHIX-71" value="" style="rounded=0;whiteSpace=wrap;html=1;fillColor=none;labelBackgroundColor=none;" vertex="1" parent="1">
          <mxGeometry x="-370" y="770" width="460" height="650" as="geometry" />
        </mxCell>
        <mxCell id="NOQc48WXprzsHyCWPHIX-74" value="" style="edgeStyle=orthogonalEdgeStyle;rounded=0;orthogonalLoop=1;jettySize=auto;html=1;labelBackgroundColor=none;fontColor=default;" edge="1" parent="1" source="NOQc48WXprzsHyCWPHIX-72" target="NN7qOwq4LlQbjLQY-MSL-1">
          <mxGeometry relative="1" as="geometry" />
        </mxCell>
        <mxCell id="NOQc48WXprzsHyCWPHIX-78" value="" style="edgeStyle=orthogonalEdgeStyle;rounded=0;orthogonalLoop=1;jettySize=auto;html=1;labelBackgroundColor=none;fontColor=default;" edge="1" parent="1" source="NOQc48WXprzsHyCWPHIX-72" target="NOQc48WXprzsHyCWPHIX-77">
          <mxGeometry relative="1" as="geometry" />
        </mxCell>
        <mxCell id="NOQc48WXprzsHyCWPHIX-72" value="Delete Confirmed?" style="strokeWidth=2;html=1;shape=mxgraph.flowchart.decision;whiteSpace=wrap;labelBackgroundColor=none;" vertex="1" parent="1">
          <mxGeometry x="650" y="1033" width="100" height="100" as="geometry" />
        </mxCell>
        <mxCell id="NOQc48WXprzsHyCWPHIX-75" value="End" style="strokeWidth=2;html=1;shape=mxgraph.flowchart.start_1;whiteSpace=wrap;labelBackgroundColor=none;" vertex="1" parent="1">
          <mxGeometry x="650" y="1304" width="100" height="60" as="geometry" />
        </mxCell>
        <mxCell id="NOQc48WXprzsHyCWPHIX-77" value="Go Back To &lt;br&gt;Room List Page" style="rounded=1;whiteSpace=wrap;html=1;absoluteArcSize=1;arcSize=14;strokeWidth=2;labelBackgroundColor=none;" vertex="1" parent="1">
          <mxGeometry x="800" y="1033" width="100" height="100" as="geometry" />
        </mxCell>
        <mxCell id="NOQc48WXprzsHyCWPHIX-79" value="Yes" style="text;html=1;strokeColor=none;fillColor=none;align=center;verticalAlign=middle;whiteSpace=wrap;rounded=0;labelBackgroundColor=none;" vertex="1" parent="1">
          <mxGeometry x="690" y="1133" width="60" height="30" as="geometry" />
        </mxCell>
        <mxCell id="NOQc48WXprzsHyCWPHIX-80" value="No" style="text;html=1;strokeColor=none;fillColor=none;align=center;verticalAlign=middle;whiteSpace=wrap;rounded=0;labelBackgroundColor=none;" vertex="1" parent="1">
          <mxGeometry x="740" y="1051.5" width="60" height="30" as="geometry" />
        </mxCell>
        <mxCell id="NOQc48WXprzsHyCWPHIX-81" value="" style="endArrow=classic;html=1;rounded=0;exitX=0.5;exitY=1;exitDx=0;exitDy=0;entryX=1;entryY=0.5;entryDx=0;entryDy=0;entryPerimeter=0;labelBackgroundColor=none;fontColor=default;" edge="1" parent="1" source="NOQc48WXprzsHyCWPHIX-77" target="NOQc48WXprzsHyCWPHIX-75">
          <mxGeometry width="50" height="50" relative="1" as="geometry">
            <mxPoint x="670" y="1153" as="sourcePoint" />
            <mxPoint x="720" y="1103" as="targetPoint" />
            <Array as="points">
              <mxPoint x="850" y="1334" />
            </Array>
          </mxGeometry>
        </mxCell>
        <mxCell id="NOQc48WXprzsHyCWPHIX-82" style="edgeStyle=orthogonalEdgeStyle;rounded=0;orthogonalLoop=1;jettySize=auto;html=1;exitX=0.5;exitY=1;exitDx=0;exitDy=0;exitPerimeter=0;entryX=0.5;entryY=0;entryDx=0;entryDy=0;labelBackgroundColor=none;fontColor=default;" edge="1" parent="1" source="NOQc48WXprzsHyCWPHIX-83" target="NOQc48WXprzsHyCWPHIX-85">
          <mxGeometry relative="1" as="geometry" />
        </mxCell>
        <mxCell id="NOQc48WXprzsHyCWPHIX-83" value="Start" style="strokeWidth=2;html=1;shape=mxgraph.flowchart.start_1;whiteSpace=wrap;labelBackgroundColor=none;" vertex="1" parent="1">
          <mxGeometry x="970" y="803" width="100" height="60" as="geometry" />
        </mxCell>
        <mxCell id="NOQc48WXprzsHyCWPHIX-84" style="edgeStyle=orthogonalEdgeStyle;rounded=0;orthogonalLoop=1;jettySize=auto;html=1;exitX=0.5;exitY=1;exitDx=0;exitDy=0;entryX=0.5;entryY=0;entryDx=0;entryDy=0;entryPerimeter=0;labelBackgroundColor=none;fontColor=default;" edge="1" parent="1" source="NOQc48WXprzsHyCWPHIX-85" target="NOQc48WXprzsHyCWPHIX-88">
          <mxGeometry relative="1" as="geometry" />
        </mxCell>
        <mxCell id="NOQc48WXprzsHyCWPHIX-85" value="Enter Required Room Details Form" style="rounded=1;whiteSpace=wrap;html=1;absoluteArcSize=1;arcSize=14;strokeWidth=2;labelBackgroundColor=none;" vertex="1" parent="1">
          <mxGeometry x="970" y="893" width="100" height="100" as="geometry" />
        </mxCell>
        <mxCell id="NOQc48WXprzsHyCWPHIX-86" style="edgeStyle=orthogonalEdgeStyle;rounded=0;orthogonalLoop=1;jettySize=auto;html=1;exitX=0.5;exitY=1;exitDx=0;exitDy=0;exitPerimeter=0;entryX=0.5;entryY=0;entryDx=0;entryDy=0;labelBackgroundColor=none;fontColor=default;" edge="1" parent="1" source="NOQc48WXprzsHyCWPHIX-88" target="NOQc48WXprzsHyCWPHIX-90">
          <mxGeometry relative="1" as="geometry" />
        </mxCell>
        <mxCell id="NOQc48WXprzsHyCWPHIX-87" value="" style="edgeStyle=orthogonalEdgeStyle;rounded=0;orthogonalLoop=1;jettySize=auto;html=1;labelBackgroundColor=none;fontColor=default;" edge="1" parent="1" source="NOQc48WXprzsHyCWPHIX-88" target="NOQc48WXprzsHyCWPHIX-94">
          <mxGeometry relative="1" as="geometry" />
        </mxCell>
        <mxCell id="NOQc48WXprzsHyCWPHIX-88" value="Room Details Validated?" style="strokeWidth=2;html=1;shape=mxgraph.flowchart.decision;whiteSpace=wrap;labelBackgroundColor=none;" vertex="1" parent="1">
          <mxGeometry x="970" y="1033" width="100" height="100" as="geometry" />
        </mxCell>
        <mxCell id="NOQc48WXprzsHyCWPHIX-89" value="" style="edgeStyle=orthogonalEdgeStyle;rounded=0;orthogonalLoop=1;jettySize=auto;html=1;labelBackgroundColor=none;fontColor=default;" edge="1" parent="1" source="NOQc48WXprzsHyCWPHIX-90" target="NOQc48WXprzsHyCWPHIX-95">
          <mxGeometry relative="1" as="geometry" />
        </mxCell>
        <mxCell id="NOQc48WXprzsHyCWPHIX-90" value="Room Edited" style="rounded=1;whiteSpace=wrap;html=1;absoluteArcSize=1;arcSize=14;strokeWidth=2;labelBackgroundColor=none;" vertex="1" parent="1">
          <mxGeometry x="970" y="1163" width="100" height="100" as="geometry" />
        </mxCell>
        <mxCell id="NOQc48WXprzsHyCWPHIX-91" value="Edit&lt;br&gt;Room" style="text;html=1;strokeColor=none;fillColor=none;align=center;verticalAlign=middle;whiteSpace=wrap;rounded=0;labelBackgroundColor=none;" vertex="1" parent="1">
          <mxGeometry x="990" y="753" width="60" height="30" as="geometry" />
        </mxCell>
        <mxCell id="NOQc48WXprzsHyCWPHIX-92" value="Yes" style="text;html=1;strokeColor=none;fillColor=none;align=center;verticalAlign=middle;whiteSpace=wrap;rounded=0;labelBackgroundColor=none;" vertex="1" parent="1">
          <mxGeometry x="1010" y="1133" width="60" height="30" as="geometry" />
        </mxCell>
        <mxCell id="NOQc48WXprzsHyCWPHIX-93" value="No" style="text;html=1;strokeColor=none;fillColor=none;align=center;verticalAlign=middle;whiteSpace=wrap;rounded=0;labelBackgroundColor=none;" vertex="1" parent="1">
          <mxGeometry x="1050" y="1053" width="60" height="30" as="geometry" />
        </mxCell>
        <mxCell id="NOQc48WXprzsHyCWPHIX-94" value="Go Back To &lt;br&gt;Room List Page" style="rounded=1;whiteSpace=wrap;html=1;absoluteArcSize=1;arcSize=14;strokeWidth=2;labelBackgroundColor=none;" vertex="1" parent="1">
          <mxGeometry x="1115" y="1033" width="100" height="100" as="geometry" />
        </mxCell>
        <mxCell id="NOQc48WXprzsHyCWPHIX-95" value="End" style="strokeWidth=2;html=1;shape=mxgraph.flowchart.start_1;whiteSpace=wrap;labelBackgroundColor=none;" vertex="1" parent="1">
          <mxGeometry x="970" y="1304" width="100" height="60" as="geometry" />
        </mxCell>
        <mxCell id="NOQc48WXprzsHyCWPHIX-96" value="" style="endArrow=classic;html=1;rounded=0;exitX=0.5;exitY=1;exitDx=0;exitDy=0;entryX=1;entryY=0.5;entryDx=0;entryDy=0;entryPerimeter=0;labelBackgroundColor=none;fontColor=default;" edge="1" parent="1" source="NOQc48WXprzsHyCWPHIX-94" target="NOQc48WXprzsHyCWPHIX-95">
          <mxGeometry width="50" height="50" relative="1" as="geometry">
            <mxPoint x="1130" y="1203" as="sourcePoint" />
            <mxPoint x="1180" y="1153" as="targetPoint" />
            <Array as="points">
              <mxPoint x="1165" y="1333" />
            </Array>
          </mxGeometry>
        </mxCell>
        <mxCell id="NOQc48WXprzsHyCWPHIX-97" value="" style="rounded=0;whiteSpace=wrap;html=1;fillColor=none;" vertex="1" parent="1">
          <mxGeometry x="300" y="733" width="950" height="660" as="geometry" />
        </mxCell>
        <mxCell id="NOQc48WXprzsHyCWPHIX-98" value="ROOM LIST (Admin)" style="text;html=1;strokeColor=none;fillColor=none;align=center;verticalAlign=middle;whiteSpace=wrap;rounded=0;fontStyle=1;strokeWidth=1;labelBackgroundColor=none;" vertex="1" parent="1">
          <mxGeometry x="715" y="703" width="120" height="30" as="geometry" />
        </mxCell>
        <mxCell id="NOQc48WXprzsHyCWPHIX-101" value="" style="edgeStyle=orthogonalEdgeStyle;rounded=0;orthogonalLoop=1;jettySize=auto;html=1;" edge="1" parent="1" source="NOQc48WXprzsHyCWPHIX-99" target="NOQc48WXprzsHyCWPHIX-100">
          <mxGeometry relative="1" as="geometry" />
        </mxCell>
        <mxCell id="NOQc48WXprzsHyCWPHIX-99" value="Start" style="strokeWidth=2;html=1;shape=mxgraph.flowchart.start_1;whiteSpace=wrap;labelBackgroundColor=none;" vertex="1" parent="1">
          <mxGeometry x="1510" y="120" width="100" height="60" as="geometry" />
        </mxCell>
        <mxCell id="NOQc48WXprzsHyCWPHIX-103" value="" style="edgeStyle=orthogonalEdgeStyle;rounded=0;orthogonalLoop=1;jettySize=auto;html=1;" edge="1" parent="1" source="NOQc48WXprzsHyCWPHIX-100" target="NOQc48WXprzsHyCWPHIX-102">
          <mxGeometry relative="1" as="geometry" />
        </mxCell>
        <mxCell id="NOQc48WXprzsHyCWPHIX-100" value="Enter Date, Time, Capacity Prompt" style="rounded=1;whiteSpace=wrap;html=1;absoluteArcSize=1;arcSize=14;strokeWidth=2;labelBackgroundColor=none;" vertex="1" parent="1">
          <mxGeometry x="1510" y="220" width="100" height="100" as="geometry" />
        </mxCell>
        <mxCell id="NOQc48WXprzsHyCWPHIX-105" value="" style="edgeStyle=orthogonalEdgeStyle;rounded=0;orthogonalLoop=1;jettySize=auto;html=1;" edge="1" parent="1" source="NOQc48WXprzsHyCWPHIX-102" target="NOQc48WXprzsHyCWPHIX-104">
          <mxGeometry relative="1" as="geometry" />
        </mxCell>
        <mxCell id="NOQc48WXprzsHyCWPHIX-102" value="Choose Room from Available Room List" style="rounded=1;whiteSpace=wrap;html=1;absoluteArcSize=1;arcSize=14;strokeWidth=2;labelBackgroundColor=none;" vertex="1" parent="1">
          <mxGeometry x="1510" y="360" width="100" height="100" as="geometry" />
        </mxCell>
        <mxCell id="NOQc48WXprzsHyCWPHIX-109" value="" style="edgeStyle=orthogonalEdgeStyle;rounded=0;orthogonalLoop=1;jettySize=auto;html=1;" edge="1" parent="1" source="NOQc48WXprzsHyCWPHIX-104" target="NOQc48WXprzsHyCWPHIX-108">
          <mxGeometry relative="1" as="geometry" />
        </mxCell>
        <mxCell id="NOQc48WXprzsHyCWPHIX-104" value="Enter Required Meeting Detail" style="rounded=1;whiteSpace=wrap;html=1;absoluteArcSize=1;arcSize=14;strokeWidth=2;labelBackgroundColor=none;" vertex="1" parent="1">
          <mxGeometry x="1510" y="500" width="100" height="100" as="geometry" />
        </mxCell>
        <mxCell id="NOQc48WXprzsHyCWPHIX-111" value="" style="edgeStyle=orthogonalEdgeStyle;rounded=0;orthogonalLoop=1;jettySize=auto;html=1;" edge="1" parent="1" source="NOQc48WXprzsHyCWPHIX-108" target="NOQc48WXprzsHyCWPHIX-110">
          <mxGeometry relative="1" as="geometry" />
        </mxCell>
        <mxCell id="NOQc48WXprzsHyCWPHIX-108" value="Meeting Detail validated?" style="strokeWidth=2;html=1;shape=mxgraph.flowchart.decision;whiteSpace=wrap;labelBackgroundColor=none;" vertex="1" parent="1">
          <mxGeometry x="1510" y="640" width="100" height="100" as="geometry" />
        </mxCell>
        <mxCell id="NOQc48WXprzsHyCWPHIX-110" value="Meeting Event Created" style="rounded=1;whiteSpace=wrap;html=1;absoluteArcSize=1;arcSize=14;strokeWidth=2;labelBackgroundColor=none;" vertex="1" parent="1">
          <mxGeometry x="1510" y="778" width="100" height="100" as="geometry" />
        </mxCell>
        <mxCell id="NOQc48WXprzsHyCWPHIX-112" value="" style="endArrow=classic;html=1;rounded=0;entryX=1;entryY=0.5;entryDx=0;entryDy=0;exitX=1;exitY=0.5;exitDx=0;exitDy=0;exitPerimeter=0;" edge="1" parent="1" source="NOQc48WXprzsHyCWPHIX-108" target="NOQc48WXprzsHyCWPHIX-104">
          <mxGeometry width="50" height="50" relative="1" as="geometry">
            <mxPoint x="1566" y="740" as="sourcePoint" />
            <mxPoint x="1616" y="690" as="targetPoint" />
            <Array as="points">
              <mxPoint x="1656" y="690" />
              <mxPoint x="1656" y="550" />
            </Array>
          </mxGeometry>
        </mxCell>
        <mxCell id="NOQc48WXprzsHyCWPHIX-113" value="Yes" style="text;html=1;strokeColor=none;fillColor=none;align=center;verticalAlign=middle;whiteSpace=wrap;rounded=0;labelBackgroundColor=none;" vertex="1" parent="1">
          <mxGeometry x="1550" y="610" width="60" height="30" as="geometry" />
        </mxCell>
        <mxCell id="NOQc48WXprzsHyCWPHIX-114" value="No" style="text;html=1;strokeColor=none;fillColor=none;align=center;verticalAlign=middle;whiteSpace=wrap;rounded=0;labelBackgroundColor=none;" vertex="1" parent="1">
          <mxGeometry x="1596" y="660" width="60" height="30" as="geometry" />
        </mxCell>
        <mxCell id="NOQc48WXprzsHyCWPHIX-116" value="" style="rounded=0;whiteSpace=wrap;html=1;fillColor=none;" vertex="1" parent="1">
          <mxGeometry x="1480" y="90" width="220" height="830" as="geometry" />
        </mxCell>
        <mxCell id="NOQc48WXprzsHyCWPHIX-117" value="RESERVATION" style="text;html=1;strokeColor=none;fillColor=none;align=center;verticalAlign=middle;whiteSpace=wrap;rounded=0;fontStyle=1;strokeWidth=1;labelBackgroundColor=none;" vertex="1" parent="1">
          <mxGeometry x="1520" y="60" width="120" height="30" as="geometry" />
        </mxCell>
      </root>
    </mxGraphModel>
  </diagram>
  <diagram id="RvpeabTTxY2jmSf0Rbjn" name="User_Flow">
    <mxGraphModel dx="1050" dy="613" grid="1" gridSize="10" guides="1" tooltips="1" connect="1" arrows="1" fold="1" page="1" pageScale="1" pageWidth="1169" pageHeight="827" math="0" shadow="0">
      <root>
        <mxCell id="0" />
        <mxCell id="1" parent="0" />
        <mxCell id="0KLjGj3U_S2TxN33D9Kq-1" style="edgeStyle=orthogonalEdgeStyle;rounded=0;orthogonalLoop=1;jettySize=auto;html=1;exitX=0.5;exitY=1;exitDx=0;exitDy=0;exitPerimeter=0;entryX=0.5;entryY=0;entryDx=0;entryDy=0;" parent="1" source="0KLjGj3U_S2TxN33D9Kq-2" target="0KLjGj3U_S2TxN33D9Kq-4" edge="1">
          <mxGeometry relative="1" as="geometry" />
        </mxCell>
        <mxCell id="0KLjGj3U_S2TxN33D9Kq-2" value="Mulai" style="strokeWidth=2;html=1;shape=mxgraph.flowchart.start_1;whiteSpace=wrap;" parent="1" vertex="1">
          <mxGeometry x="200" y="130" width="100" height="60" as="geometry" />
        </mxCell>
        <mxCell id="0KLjGj3U_S2TxN33D9Kq-3" style="edgeStyle=orthogonalEdgeStyle;rounded=0;orthogonalLoop=1;jettySize=auto;html=1;exitX=0.5;exitY=1;exitDx=0;exitDy=0;entryX=0.5;entryY=0;entryDx=0;entryDy=0;entryPerimeter=0;" parent="1" source="0KLjGj3U_S2TxN33D9Kq-4" target="0KLjGj3U_S2TxN33D9Kq-7" edge="1">
          <mxGeometry relative="1" as="geometry" />
        </mxCell>
        <mxCell id="0KLjGj3U_S2TxN33D9Kq-4" value="Masukan Email dan Password" style="rounded=1;whiteSpace=wrap;html=1;absoluteArcSize=1;arcSize=14;strokeWidth=2;" parent="1" vertex="1">
          <mxGeometry x="200" y="220" width="100" height="100" as="geometry" />
        </mxCell>
        <mxCell id="0KLjGj3U_S2TxN33D9Kq-5" style="edgeStyle=orthogonalEdgeStyle;rounded=0;orthogonalLoop=1;jettySize=auto;html=1;exitX=0.5;exitY=1;exitDx=0;exitDy=0;exitPerimeter=0;entryX=0.5;entryY=0;entryDx=0;entryDy=0;" parent="1" source="0KLjGj3U_S2TxN33D9Kq-7" target="0KLjGj3U_S2TxN33D9Kq-8" edge="1">
          <mxGeometry relative="1" as="geometry" />
        </mxCell>
        <mxCell id="0KLjGj3U_S2TxN33D9Kq-6" style="edgeStyle=orthogonalEdgeStyle;rounded=0;orthogonalLoop=1;jettySize=auto;html=1;exitX=1;exitY=0.5;exitDx=0;exitDy=0;exitPerimeter=0;entryX=1;entryY=0.5;entryDx=0;entryDy=0;" parent="1" source="0KLjGj3U_S2TxN33D9Kq-7" target="0KLjGj3U_S2TxN33D9Kq-4" edge="1">
          <mxGeometry relative="1" as="geometry" />
        </mxCell>
        <mxCell id="0KLjGj3U_S2TxN33D9Kq-7" value="Email dan PassWord Sesuai?" style="strokeWidth=2;html=1;shape=mxgraph.flowchart.decision;whiteSpace=wrap;" parent="1" vertex="1">
          <mxGeometry x="200" y="350" width="100" height="100" as="geometry" />
        </mxCell>
        <mxCell id="0KLjGj3U_S2TxN33D9Kq-8" value="Masuk Ke Halaman User" style="rounded=1;whiteSpace=wrap;html=1;absoluteArcSize=1;arcSize=14;strokeWidth=2;" parent="1" vertex="1">
          <mxGeometry x="200" y="490" width="100" height="100" as="geometry" />
        </mxCell>
        <mxCell id="0KLjGj3U_S2TxN33D9Kq-9" value="Login" style="text;html=1;strokeColor=none;fillColor=none;align=center;verticalAlign=middle;whiteSpace=wrap;rounded=0;" parent="1" vertex="1">
          <mxGeometry x="220" y="80" width="60" height="30" as="geometry" />
        </mxCell>
        <mxCell id="0KLjGj3U_S2TxN33D9Kq-18" style="edgeStyle=orthogonalEdgeStyle;rounded=0;orthogonalLoop=1;jettySize=auto;html=1;exitX=0.5;exitY=1;exitDx=0;exitDy=0;exitPerimeter=0;entryX=0.5;entryY=0;entryDx=0;entryDy=0;" parent="1" source="0KLjGj3U_S2TxN33D9Kq-10" target="0KLjGj3U_S2TxN33D9Kq-11" edge="1">
          <mxGeometry relative="1" as="geometry" />
        </mxCell>
        <mxCell id="0KLjGj3U_S2TxN33D9Kq-10" value="Mulai" style="strokeWidth=2;html=1;shape=mxgraph.flowchart.start_1;whiteSpace=wrap;" parent="1" vertex="1">
          <mxGeometry x="380" y="130" width="100" height="60" as="geometry" />
        </mxCell>
        <mxCell id="0KLjGj3U_S2TxN33D9Kq-19" style="edgeStyle=orthogonalEdgeStyle;rounded=0;orthogonalLoop=1;jettySize=auto;html=1;exitX=0.5;exitY=1;exitDx=0;exitDy=0;entryX=0.5;entryY=0;entryDx=0;entryDy=0;entryPerimeter=0;" parent="1" source="0KLjGj3U_S2TxN33D9Kq-11" target="0KLjGj3U_S2TxN33D9Kq-12" edge="1">
          <mxGeometry relative="1" as="geometry" />
        </mxCell>
        <mxCell id="0KLjGj3U_S2TxN33D9Kq-11" value="Pilih Ruangan, Hari, tanggal, Jam" style="rounded=1;whiteSpace=wrap;html=1;absoluteArcSize=1;arcSize=14;strokeWidth=2;" parent="1" vertex="1">
          <mxGeometry x="380" y="220" width="100" height="100" as="geometry" />
        </mxCell>
        <mxCell id="0KLjGj3U_S2TxN33D9Kq-20" style="edgeStyle=orthogonalEdgeStyle;rounded=0;orthogonalLoop=1;jettySize=auto;html=1;exitX=0.5;exitY=1;exitDx=0;exitDy=0;exitPerimeter=0;entryX=0.5;entryY=0;entryDx=0;entryDy=0;" parent="1" source="0KLjGj3U_S2TxN33D9Kq-12" target="0KLjGj3U_S2TxN33D9Kq-13" edge="1">
          <mxGeometry relative="1" as="geometry" />
        </mxCell>
        <mxCell id="0KLjGj3U_S2TxN33D9Kq-21" style="edgeStyle=orthogonalEdgeStyle;rounded=0;orthogonalLoop=1;jettySize=auto;html=1;exitX=1;exitY=0.5;exitDx=0;exitDy=0;exitPerimeter=0;entryX=1;entryY=0.5;entryDx=0;entryDy=0;" parent="1" source="0KLjGj3U_S2TxN33D9Kq-12" target="0KLjGj3U_S2TxN33D9Kq-11" edge="1">
          <mxGeometry relative="1" as="geometry" />
        </mxCell>
        <mxCell id="0KLjGj3U_S2TxN33D9Kq-12" value="Ruangan tersedia?" style="strokeWidth=2;html=1;shape=mxgraph.flowchart.decision;whiteSpace=wrap;" parent="1" vertex="1">
          <mxGeometry x="380" y="350" width="100" height="100" as="geometry" />
        </mxCell>
        <mxCell id="0KLjGj3U_S2TxN33D9Kq-13" value="Booking Ruangan" style="rounded=1;whiteSpace=wrap;html=1;absoluteArcSize=1;arcSize=14;strokeWidth=2;" parent="1" vertex="1">
          <mxGeometry x="380" y="490" width="100" height="100" as="geometry" />
        </mxCell>
        <mxCell id="0KLjGj3U_S2TxN33D9Kq-22" style="edgeStyle=orthogonalEdgeStyle;rounded=0;orthogonalLoop=1;jettySize=auto;html=1;exitX=0.5;exitY=1;exitDx=0;exitDy=0;exitPerimeter=0;entryX=0.5;entryY=0;entryDx=0;entryDy=0;" parent="1" source="0KLjGj3U_S2TxN33D9Kq-14" target="0KLjGj3U_S2TxN33D9Kq-15" edge="1">
          <mxGeometry relative="1" as="geometry" />
        </mxCell>
        <mxCell id="0KLjGj3U_S2TxN33D9Kq-14" value="Mulai" style="strokeWidth=2;html=1;shape=mxgraph.flowchart.start_1;whiteSpace=wrap;" parent="1" vertex="1">
          <mxGeometry x="560" y="130" width="100" height="60" as="geometry" />
        </mxCell>
        <mxCell id="0KLjGj3U_S2TxN33D9Kq-23" style="edgeStyle=orthogonalEdgeStyle;rounded=0;orthogonalLoop=1;jettySize=auto;html=1;exitX=0.5;exitY=1;exitDx=0;exitDy=0;entryX=0.5;entryY=0;entryDx=0;entryDy=0;entryPerimeter=0;" parent="1" source="0KLjGj3U_S2TxN33D9Kq-15" target="0KLjGj3U_S2TxN33D9Kq-16" edge="1">
          <mxGeometry relative="1" as="geometry" />
        </mxCell>
        <mxCell id="0KLjGj3U_S2TxN33D9Kq-15" value="Masukan Kata kunci" style="rounded=1;whiteSpace=wrap;html=1;absoluteArcSize=1;arcSize=14;strokeWidth=2;" parent="1" vertex="1">
          <mxGeometry x="560" y="220" width="100" height="100" as="geometry" />
        </mxCell>
        <mxCell id="0KLjGj3U_S2TxN33D9Kq-24" style="edgeStyle=orthogonalEdgeStyle;rounded=0;orthogonalLoop=1;jettySize=auto;html=1;exitX=0.5;exitY=1;exitDx=0;exitDy=0;exitPerimeter=0;entryX=0.5;entryY=0;entryDx=0;entryDy=0;" parent="1" source="0KLjGj3U_S2TxN33D9Kq-16" target="0KLjGj3U_S2TxN33D9Kq-17" edge="1">
          <mxGeometry relative="1" as="geometry" />
        </mxCell>
        <mxCell id="0KLjGj3U_S2TxN33D9Kq-25" style="edgeStyle=orthogonalEdgeStyle;rounded=0;orthogonalLoop=1;jettySize=auto;html=1;exitX=1;exitY=0.5;exitDx=0;exitDy=0;exitPerimeter=0;entryX=1;entryY=0.5;entryDx=0;entryDy=0;" parent="1" source="0KLjGj3U_S2TxN33D9Kq-16" target="0KLjGj3U_S2TxN33D9Kq-15" edge="1">
          <mxGeometry relative="1" as="geometry" />
        </mxCell>
        <mxCell id="0KLjGj3U_S2TxN33D9Kq-16" value="kata kunci sesuai?" style="strokeWidth=2;html=1;shape=mxgraph.flowchart.decision;whiteSpace=wrap;" parent="1" vertex="1">
          <mxGeometry x="560" y="350" width="100" height="100" as="geometry" />
        </mxCell>
        <mxCell id="0KLjGj3U_S2TxN33D9Kq-17" value="Tampilkan Hasil" style="rounded=1;whiteSpace=wrap;html=1;absoluteArcSize=1;arcSize=14;strokeWidth=2;" parent="1" vertex="1">
          <mxGeometry x="560" y="490" width="100" height="100" as="geometry" />
        </mxCell>
        <mxCell id="0KLjGj3U_S2TxN33D9Kq-26" value="Booking Ruangan" style="text;html=1;strokeColor=none;fillColor=none;align=center;verticalAlign=middle;whiteSpace=wrap;rounded=0;" parent="1" vertex="1">
          <mxGeometry x="400" y="80" width="60" height="30" as="geometry" />
        </mxCell>
        <mxCell id="0KLjGj3U_S2TxN33D9Kq-27" value="Cari Ruangan" style="text;html=1;strokeColor=none;fillColor=none;align=center;verticalAlign=middle;whiteSpace=wrap;rounded=0;" parent="1" vertex="1">
          <mxGeometry x="580" y="80" width="60" height="30" as="geometry" />
        </mxCell>
        <mxCell id="s62CaL7BjcTbre8Fxhpa-1" value="Yes" style="text;html=1;strokeColor=none;fillColor=none;align=center;verticalAlign=middle;whiteSpace=wrap;rounded=0;" parent="1" vertex="1">
          <mxGeometry x="250" y="450" width="60" height="30" as="geometry" />
        </mxCell>
        <mxCell id="s62CaL7BjcTbre8Fxhpa-2" value="No" style="text;html=1;strokeColor=none;fillColor=none;align=center;verticalAlign=middle;whiteSpace=wrap;rounded=0;" parent="1" vertex="1">
          <mxGeometry x="270" y="360" width="60" height="30" as="geometry" />
        </mxCell>
        <mxCell id="s62CaL7BjcTbre8Fxhpa-4" value="Yes" style="text;html=1;strokeColor=none;fillColor=none;align=center;verticalAlign=middle;whiteSpace=wrap;rounded=0;" parent="1" vertex="1">
          <mxGeometry x="440" y="450" width="60" height="30" as="geometry" />
        </mxCell>
        <mxCell id="s62CaL7BjcTbre8Fxhpa-5" value="Yes" style="text;html=1;strokeColor=none;fillColor=none;align=center;verticalAlign=middle;whiteSpace=wrap;rounded=0;" parent="1" vertex="1">
          <mxGeometry x="620" y="460" width="60" height="30" as="geometry" />
        </mxCell>
        <mxCell id="s62CaL7BjcTbre8Fxhpa-6" value="No" style="text;html=1;strokeColor=none;fillColor=none;align=center;verticalAlign=middle;whiteSpace=wrap;rounded=0;" parent="1" vertex="1">
          <mxGeometry x="450" y="360" width="60" height="30" as="geometry" />
        </mxCell>
        <mxCell id="s62CaL7BjcTbre8Fxhpa-7" value="No" style="text;html=1;strokeColor=none;fillColor=none;align=center;verticalAlign=middle;whiteSpace=wrap;rounded=0;" parent="1" vertex="1">
          <mxGeometry x="630" y="350" width="60" height="30" as="geometry" />
        </mxCell>
      </root>
    </mxGraphModel>
  </diagram>
  <diagram id="LGjhxuYsNUHeBQY6Yny7" name="Activity Admin">
    <mxGraphModel dx="3500" dy="2043" grid="1" gridSize="10" guides="1" tooltips="1" connect="1" arrows="1" fold="1" page="1" pageScale="1" pageWidth="1169" pageHeight="827" math="0" shadow="0">
      <root>
        <mxCell id="0" />
        <mxCell id="1" parent="0" />
        <mxCell id="crW4DBNORJjYfhABTtt8-27" value="" style="group" parent="1" connectable="0" vertex="1">
          <mxGeometry x="560" y="250" width="400" height="1630" as="geometry" />
        </mxCell>
        <mxCell id="crW4DBNORJjYfhABTtt8-5" value="Admin" style="swimlane;whiteSpace=wrap;html=1;" parent="crW4DBNORJjYfhABTtt8-27" vertex="1">
          <mxGeometry width="200" height="1630" as="geometry" />
        </mxCell>
        <mxCell id="crW4DBNORJjYfhABTtt8-28" value="" style="ellipse;html=1;shape=startState;fillColor=#000000;strokeColor=#ff0000;" parent="crW4DBNORJjYfhABTtt8-5" vertex="1">
          <mxGeometry x="85" y="30" width="30" height="30" as="geometry" />
        </mxCell>
        <mxCell id="crW4DBNORJjYfhABTtt8-29" value="" style="edgeStyle=orthogonalEdgeStyle;html=1;verticalAlign=bottom;endArrow=open;endSize=8;strokeColor=#ff0000;rounded=0;entryX=0.5;entryY=0;entryDx=0;entryDy=0;" parent="crW4DBNORJjYfhABTtt8-5" source="crW4DBNORJjYfhABTtt8-28" edge="1" target="crW4DBNORJjYfhABTtt8-30">
          <mxGeometry relative="1" as="geometry">
            <mxPoint x="100" y="120" as="targetPoint" />
          </mxGeometry>
        </mxCell>
        <mxCell id="crW4DBNORJjYfhABTtt8-30" value="Navigate to web" style="html=1;whiteSpace=wrap;" parent="crW4DBNORJjYfhABTtt8-5" vertex="1">
          <mxGeometry x="45" y="98" width="110" height="50" as="geometry" />
        </mxCell>
        <mxCell id="Y04UfbKp6PvPN9PkAOyR-2" value="" style="edgeStyle=orthogonalEdgeStyle;rounded=0;orthogonalLoop=1;jettySize=auto;html=1;" edge="1" parent="crW4DBNORJjYfhABTtt8-5" source="fMUYK2t4Ta2FRzAtBdcp-3" target="Y04UfbKp6PvPN9PkAOyR-1">
          <mxGeometry relative="1" as="geometry" />
        </mxCell>
        <mxCell id="fMUYK2t4Ta2FRzAtBdcp-3" value="Reservation" style="html=1;whiteSpace=wrap;" parent="crW4DBNORJjYfhABTtt8-5" vertex="1">
          <mxGeometry x="45" y="370" width="110" height="50" as="geometry" />
        </mxCell>
        <mxCell id="Y04UfbKp6PvPN9PkAOyR-1" value="Enter Required Reserve Details" style="html=1;whiteSpace=wrap;" vertex="1" parent="crW4DBNORJjYfhABTtt8-5">
          <mxGeometry x="45" y="450" width="110" height="50" as="geometry" />
        </mxCell>
        <mxCell id="Y04UfbKp6PvPN9PkAOyR-4" value="Choose Room" style="html=1;whiteSpace=wrap;" vertex="1" parent="crW4DBNORJjYfhABTtt8-5">
          <mxGeometry x="45" y="527" width="110" height="50" as="geometry" />
        </mxCell>
        <mxCell id="Y04UfbKp6PvPN9PkAOyR-12" value="" style="edgeStyle=orthogonalEdgeStyle;rounded=0;orthogonalLoop=1;jettySize=auto;html=1;" edge="1" parent="crW4DBNORJjYfhABTtt8-5" source="Y04UfbKp6PvPN9PkAOyR-9" target="Y04UfbKp6PvPN9PkAOyR-11">
          <mxGeometry relative="1" as="geometry" />
        </mxCell>
        <mxCell id="Y04UfbKp6PvPN9PkAOyR-9" value="Fill Meeting &lt;br&gt;Details Form" style="html=1;whiteSpace=wrap;" vertex="1" parent="crW4DBNORJjYfhABTtt8-5">
          <mxGeometry x="45" y="640" width="110" height="50" as="geometry" />
        </mxCell>
        <mxCell id="Y04UfbKp6PvPN9PkAOyR-11" value="Create Event" style="html=1;whiteSpace=wrap;" vertex="1" parent="crW4DBNORJjYfhABTtt8-5">
          <mxGeometry x="45" y="720" width="110" height="50" as="geometry" />
        </mxCell>
        <mxCell id="uKXweNaaNun5vioLD5mb-76" value="" style="edgeStyle=orthogonalEdgeStyle;rounded=0;orthogonalLoop=1;jettySize=auto;html=1;" edge="1" parent="crW4DBNORJjYfhABTtt8-5" source="uKXweNaaNun5vioLD5mb-73" target="uKXweNaaNun5vioLD5mb-75">
          <mxGeometry relative="1" as="geometry" />
        </mxCell>
        <mxCell id="uKXweNaaNun5vioLD5mb-73" value="Room List" style="html=1;whiteSpace=wrap;" vertex="1" parent="crW4DBNORJjYfhABTtt8-5">
          <mxGeometry x="45" y="890" width="110" height="50" as="geometry" />
        </mxCell>
        <mxCell id="uKXweNaaNun5vioLD5mb-75" value="Create New Room" style="html=1;whiteSpace=wrap;" vertex="1" parent="crW4DBNORJjYfhABTtt8-5">
          <mxGeometry x="45" y="970" width="110" height="50" as="geometry" />
        </mxCell>
        <mxCell id="uKXweNaaNun5vioLD5mb-84" value="" style="edgeStyle=orthogonalEdgeStyle;rounded=0;orthogonalLoop=1;jettySize=auto;html=1;" edge="1" parent="crW4DBNORJjYfhABTtt8-5" source="uKXweNaaNun5vioLD5mb-81" target="uKXweNaaNun5vioLD5mb-83">
          <mxGeometry relative="1" as="geometry" />
        </mxCell>
        <mxCell id="uKXweNaaNun5vioLD5mb-81" value="Fill Room &lt;br&gt;Details Form" style="html=1;whiteSpace=wrap;" vertex="1" parent="crW4DBNORJjYfhABTtt8-5">
          <mxGeometry x="45" y="1050" width="110" height="50" as="geometry" />
        </mxCell>
        <mxCell id="uKXweNaaNun5vioLD5mb-83" value="Create" style="html=1;whiteSpace=wrap;" vertex="1" parent="crW4DBNORJjYfhABTtt8-5">
          <mxGeometry x="45" y="1130" width="110" height="50" as="geometry" />
        </mxCell>
        <mxCell id="uKXweNaaNun5vioLD5mb-95" value="Edit Room Details" style="html=1;whiteSpace=wrap;" vertex="1" parent="crW4DBNORJjYfhABTtt8-5">
          <mxGeometry x="45" y="1310" width="110" height="50" as="geometry" />
        </mxCell>
        <mxCell id="uKXweNaaNun5vioLD5mb-110" value="" style="edgeStyle=orthogonalEdgeStyle;rounded=0;orthogonalLoop=1;jettySize=auto;html=1;" edge="1" parent="crW4DBNORJjYfhABTtt8-5" source="uKXweNaaNun5vioLD5mb-99" target="uKXweNaaNun5vioLD5mb-109">
          <mxGeometry relative="1" as="geometry" />
        </mxCell>
        <mxCell id="uKXweNaaNun5vioLD5mb-99" value="Edit Room &lt;br&gt;Details Form" style="html=1;whiteSpace=wrap;" vertex="1" parent="crW4DBNORJjYfhABTtt8-5">
          <mxGeometry x="45" y="1431" width="110" height="50" as="geometry" />
        </mxCell>
        <mxCell id="crW4DBNORJjYfhABTtt8-31" value="Enter Email and password" style="html=1;whiteSpace=wrap;" parent="crW4DBNORJjYfhABTtt8-5" vertex="1">
          <mxGeometry x="45" y="180" width="110" height="50" as="geometry" />
        </mxCell>
        <mxCell id="fMUYK2t4Ta2FRzAtBdcp-11" style="edgeStyle=orthogonalEdgeStyle;rounded=0;orthogonalLoop=1;jettySize=auto;html=1;exitX=0.5;exitY=1;exitDx=0;exitDy=0;entryX=0.5;entryY=0;entryDx=0;entryDy=0;" parent="crW4DBNORJjYfhABTtt8-5" source="crW4DBNORJjYfhABTtt8-30" target="crW4DBNORJjYfhABTtt8-31" edge="1">
          <mxGeometry relative="1" as="geometry" />
        </mxCell>
        <mxCell id="uKXweNaaNun5vioLD5mb-109" value="Edit" style="html=1;whiteSpace=wrap;" vertex="1" parent="crW4DBNORJjYfhABTtt8-5">
          <mxGeometry x="45" y="1505" width="110" height="50" as="geometry" />
        </mxCell>
        <mxCell id="crW4DBNORJjYfhABTtt8-25" value="System" style="swimlane;whiteSpace=wrap;html=1;" parent="crW4DBNORJjYfhABTtt8-27" vertex="1">
          <mxGeometry x="200" width="200" height="1630" as="geometry" />
        </mxCell>
        <mxCell id="3ImBIGE50OkkJD5FPMCx-1" value="Yes" style="text;html=1;strokeColor=none;fillColor=none;align=center;verticalAlign=middle;whiteSpace=wrap;rounded=0;" parent="crW4DBNORJjYfhABTtt8-25" vertex="1">
          <mxGeometry x="110" y="340" width="60" height="30" as="geometry" />
        </mxCell>
        <mxCell id="3ImBIGE50OkkJD5FPMCx-2" value="No" style="text;html=1;strokeColor=none;fillColor=none;align=center;verticalAlign=middle;whiteSpace=wrap;rounded=0;" parent="crW4DBNORJjYfhABTtt8-25" vertex="1">
          <mxGeometry y="270" width="60" height="30" as="geometry" />
        </mxCell>
        <mxCell id="fMUYK2t4Ta2FRzAtBdcp-2" value="Display index" style="html=1;whiteSpace=wrap;" parent="crW4DBNORJjYfhABTtt8-25" vertex="1">
          <mxGeometry x="50" y="370" width="110" height="50" as="geometry" />
        </mxCell>
        <mxCell id="fMUYK2t4Ta2FRzAtBdcp-4" value="Display Available Rooms" style="html=1;whiteSpace=wrap;" parent="crW4DBNORJjYfhABTtt8-25" vertex="1">
          <mxGeometry x="50" y="450" width="110" height="50" as="geometry" />
        </mxCell>
        <mxCell id="Y04UfbKp6PvPN9PkAOyR-7" value="Display Meeting Details Form" style="html=1;whiteSpace=wrap;" vertex="1" parent="crW4DBNORJjYfhABTtt8-25">
          <mxGeometry x="50" y="580" width="110" height="50" as="geometry" />
        </mxCell>
        <mxCell id="uKXweNaaNun5vioLD5mb-1" value="" style="edgeStyle=orthogonalEdgeStyle;rounded=0;orthogonalLoop=1;jettySize=auto;html=1;" edge="1" parent="crW4DBNORJjYfhABTtt8-25" source="Y04UfbKp6PvPN9PkAOyR-13" target="fMUYK2t4Ta2FRzAtBdcp-5">
          <mxGeometry relative="1" as="geometry" />
        </mxCell>
        <mxCell id="Y04UfbKp6PvPN9PkAOyR-13" value="Meeting Validated?" style="strokeWidth=2;html=1;shape=mxgraph.flowchart.decision;whiteSpace=wrap;fillColor=default;strokeColor=default;" vertex="1" parent="crW4DBNORJjYfhABTtt8-25">
          <mxGeometry x="50" y="710" width="100" height="70" as="geometry" />
        </mxCell>
        <mxCell id="fMUYK2t4Ta2FRzAtBdcp-5" value="Room Booked" style="html=1;whiteSpace=wrap;" parent="crW4DBNORJjYfhABTtt8-25" vertex="1">
          <mxGeometry x="45" y="810" width="110" height="50" as="geometry" />
        </mxCell>
        <mxCell id="fMUYK2t4Ta2FRzAtBdcp-6" value="Display Reservation" style="html=1;whiteSpace=wrap;" parent="crW4DBNORJjYfhABTtt8-25" vertex="1">
          <mxGeometry x="37.5" y="890" width="125" height="50" as="geometry" />
        </mxCell>
        <mxCell id="fMUYK2t4Ta2FRzAtBdcp-19" style="edgeStyle=orthogonalEdgeStyle;rounded=0;orthogonalLoop=1;jettySize=auto;html=1;exitX=0.5;exitY=1;exitDx=0;exitDy=0;entryX=0.5;entryY=0;entryDx=0;entryDy=0;" parent="crW4DBNORJjYfhABTtt8-25" source="fMUYK2t4Ta2FRzAtBdcp-5" target="fMUYK2t4Ta2FRzAtBdcp-6" edge="1">
          <mxGeometry relative="1" as="geometry" />
        </mxCell>
        <mxCell id="uKXweNaaNun5vioLD5mb-2" value="Yes" style="text;html=1;strokeColor=none;fillColor=none;align=center;verticalAlign=middle;whiteSpace=wrap;rounded=0;" vertex="1" parent="crW4DBNORJjYfhABTtt8-25">
          <mxGeometry x="50" y="780" width="60" height="30" as="geometry" />
        </mxCell>
        <mxCell id="uKXweNaaNun5vioLD5mb-3" value="" style="endArrow=classic;html=1;rounded=0;exitX=1;exitY=0.5;exitDx=0;exitDy=0;entryX=1;entryY=0.5;entryDx=0;entryDy=0;exitPerimeter=0;" edge="1" parent="crW4DBNORJjYfhABTtt8-25" source="Y04UfbKp6PvPN9PkAOyR-13" target="Y04UfbKp6PvPN9PkAOyR-7">
          <mxGeometry width="50" height="50" relative="1" as="geometry">
            <mxPoint x="80" y="710" as="sourcePoint" />
            <mxPoint x="130" y="660" as="targetPoint" />
            <Array as="points">
              <mxPoint x="190" y="745" />
              <mxPoint x="190" y="605" />
            </Array>
          </mxGeometry>
        </mxCell>
        <mxCell id="uKXweNaaNun5vioLD5mb-4" value="No" style="text;html=1;strokeColor=none;fillColor=none;align=center;verticalAlign=middle;whiteSpace=wrap;rounded=0;" vertex="1" parent="crW4DBNORJjYfhABTtt8-25">
          <mxGeometry x="140" y="710" width="60" height="30" as="geometry" />
        </mxCell>
        <mxCell id="uKXweNaaNun5vioLD5mb-79" value="Display Room &lt;br&gt;Details Form" style="html=1;whiteSpace=wrap;" vertex="1" parent="crW4DBNORJjYfhABTtt8-25">
          <mxGeometry x="37.5" y="970" width="125" height="50" as="geometry" />
        </mxCell>
        <mxCell id="uKXweNaaNun5vioLD5mb-89" value="" style="edgeStyle=orthogonalEdgeStyle;rounded=0;orthogonalLoop=1;jettySize=auto;html=1;" edge="1" parent="crW4DBNORJjYfhABTtt8-25" source="uKXweNaaNun5vioLD5mb-85" target="uKXweNaaNun5vioLD5mb-88">
          <mxGeometry relative="1" as="geometry" />
        </mxCell>
        <mxCell id="uKXweNaaNun5vioLD5mb-85" value="Room Details Validated?" style="strokeWidth=2;html=1;shape=mxgraph.flowchart.decision;whiteSpace=wrap;fillColor=default;strokeColor=default;" vertex="1" parent="crW4DBNORJjYfhABTtt8-25">
          <mxGeometry x="45" y="1115" width="110" height="80" as="geometry" />
        </mxCell>
        <mxCell id="uKXweNaaNun5vioLD5mb-94" value="" style="edgeStyle=orthogonalEdgeStyle;rounded=0;orthogonalLoop=1;jettySize=auto;html=1;" edge="1" parent="crW4DBNORJjYfhABTtt8-25" source="uKXweNaaNun5vioLD5mb-88" target="uKXweNaaNun5vioLD5mb-93">
          <mxGeometry relative="1" as="geometry" />
        </mxCell>
        <mxCell id="uKXweNaaNun5vioLD5mb-88" value="Room Created" style="html=1;whiteSpace=wrap;" vertex="1" parent="crW4DBNORJjYfhABTtt8-25">
          <mxGeometry x="37.5" y="1230" width="125" height="50" as="geometry" />
        </mxCell>
        <mxCell id="uKXweNaaNun5vioLD5mb-90" value="Yes" style="text;html=1;strokeColor=none;fillColor=none;align=center;verticalAlign=middle;whiteSpace=wrap;rounded=0;" vertex="1" parent="crW4DBNORJjYfhABTtt8-25">
          <mxGeometry x="50" y="1195" width="60" height="30" as="geometry" />
        </mxCell>
        <mxCell id="uKXweNaaNun5vioLD5mb-91" value="" style="endArrow=classic;html=1;rounded=0;exitX=1;exitY=0.5;exitDx=0;exitDy=0;exitPerimeter=0;entryX=1;entryY=0.5;entryDx=0;entryDy=0;" edge="1" parent="crW4DBNORJjYfhABTtt8-25" source="uKXweNaaNun5vioLD5mb-85" target="uKXweNaaNun5vioLD5mb-79">
          <mxGeometry width="50" height="50" relative="1" as="geometry">
            <mxPoint x="40" y="1210" as="sourcePoint" />
            <mxPoint x="90" y="1160" as="targetPoint" />
            <Array as="points">
              <mxPoint x="190" y="1155" />
              <mxPoint x="190" y="995" />
            </Array>
          </mxGeometry>
        </mxCell>
        <mxCell id="uKXweNaaNun5vioLD5mb-92" value="No" style="text;html=1;strokeColor=none;fillColor=none;align=center;verticalAlign=middle;whiteSpace=wrap;rounded=0;" vertex="1" parent="crW4DBNORJjYfhABTtt8-25">
          <mxGeometry x="140" y="1115" width="60" height="30" as="geometry" />
        </mxCell>
        <mxCell id="uKXweNaaNun5vioLD5mb-93" value="Display Room List" style="html=1;whiteSpace=wrap;" vertex="1" parent="crW4DBNORJjYfhABTtt8-25">
          <mxGeometry x="37.5" y="1310" width="125" height="50" as="geometry" />
        </mxCell>
        <mxCell id="uKXweNaaNun5vioLD5mb-97" value="Display Room &lt;br&gt;Details Form" style="html=1;whiteSpace=wrap;" vertex="1" parent="crW4DBNORJjYfhABTtt8-25">
          <mxGeometry x="37.5" y="1380" width="125" height="50" as="geometry" />
        </mxCell>
        <mxCell id="crW4DBNORJjYfhABTtt8-32" value="Validation" style="html=1;whiteSpace=wrap;" parent="crW4DBNORJjYfhABTtt8-25" vertex="1">
          <mxGeometry x="50" y="180" width="110" height="50" as="geometry" />
        </mxCell>
        <mxCell id="fMUYK2t4Ta2FRzAtBdcp-1" value="Valid?" style="strokeWidth=2;html=1;shape=mxgraph.flowchart.decision;whiteSpace=wrap;fillColor=default;strokeColor=default;" parent="crW4DBNORJjYfhABTtt8-25" vertex="1">
          <mxGeometry x="55" y="260" width="100" height="70" as="geometry" />
        </mxCell>
        <mxCell id="fMUYK2t4Ta2FRzAtBdcp-13" style="edgeStyle=orthogonalEdgeStyle;rounded=0;orthogonalLoop=1;jettySize=auto;html=1;exitX=0.5;exitY=1;exitDx=0;exitDy=0;entryX=0.5;entryY=0;entryDx=0;entryDy=0;entryPerimeter=0;" parent="crW4DBNORJjYfhABTtt8-25" source="crW4DBNORJjYfhABTtt8-32" target="fMUYK2t4Ta2FRzAtBdcp-1" edge="1">
          <mxGeometry relative="1" as="geometry" />
        </mxCell>
        <mxCell id="fMUYK2t4Ta2FRzAtBdcp-15" style="edgeStyle=orthogonalEdgeStyle;rounded=0;orthogonalLoop=1;jettySize=auto;html=1;exitX=0.5;exitY=1;exitDx=0;exitDy=0;exitPerimeter=0;entryX=0.5;entryY=0;entryDx=0;entryDy=0;" parent="crW4DBNORJjYfhABTtt8-25" source="fMUYK2t4Ta2FRzAtBdcp-1" target="fMUYK2t4Ta2FRzAtBdcp-2" edge="1">
          <mxGeometry relative="1" as="geometry" />
        </mxCell>
        <mxCell id="uKXweNaaNun5vioLD5mb-111" value="Room Details Validated?" style="strokeWidth=2;html=1;shape=mxgraph.flowchart.decision;whiteSpace=wrap;fillColor=default;strokeColor=default;" vertex="1" parent="crW4DBNORJjYfhABTtt8-25">
          <mxGeometry x="45" y="1490" width="110" height="80" as="geometry" />
        </mxCell>
        <mxCell id="uKXweNaaNun5vioLD5mb-113" value="A" style="ellipse;whiteSpace=wrap;html=1;aspect=fixed;" vertex="1" parent="crW4DBNORJjYfhABTtt8-25">
          <mxGeometry x="85" y="1590" width="30" height="30" as="geometry" />
        </mxCell>
        <mxCell id="uKXweNaaNun5vioLD5mb-114" value="" style="endArrow=classic;html=1;rounded=0;exitX=0.5;exitY=1;exitDx=0;exitDy=0;exitPerimeter=0;entryX=0.5;entryY=0;entryDx=0;entryDy=0;" edge="1" parent="crW4DBNORJjYfhABTtt8-25" source="uKXweNaaNun5vioLD5mb-111" target="uKXweNaaNun5vioLD5mb-113">
          <mxGeometry width="50" height="50" relative="1" as="geometry">
            <mxPoint x="250" y="1500" as="sourcePoint" />
            <mxPoint x="300" y="1450" as="targetPoint" />
          </mxGeometry>
        </mxCell>
        <mxCell id="uKXweNaaNun5vioLD5mb-115" value="Yes" style="text;html=1;strokeColor=none;fillColor=none;align=center;verticalAlign=middle;whiteSpace=wrap;rounded=0;" vertex="1" parent="crW4DBNORJjYfhABTtt8-25">
          <mxGeometry x="45" y="1560" width="60" height="30" as="geometry" />
        </mxCell>
        <mxCell id="uKXweNaaNun5vioLD5mb-117" value="" style="endArrow=classic;html=1;rounded=0;exitX=1;exitY=0.5;exitDx=0;exitDy=0;exitPerimeter=0;entryX=1;entryY=0.5;entryDx=0;entryDy=0;" edge="1" parent="crW4DBNORJjYfhABTtt8-25" source="uKXweNaaNun5vioLD5mb-111" target="uKXweNaaNun5vioLD5mb-97">
          <mxGeometry width="50" height="50" relative="1" as="geometry">
            <mxPoint x="250" y="1670" as="sourcePoint" />
            <mxPoint x="240" y="1420" as="targetPoint" />
            <Array as="points">
              <mxPoint x="190" y="1530" />
              <mxPoint x="190" y="1405" />
            </Array>
          </mxGeometry>
        </mxCell>
        <mxCell id="fMUYK2t4Ta2FRzAtBdcp-16" style="edgeStyle=orthogonalEdgeStyle;rounded=0;orthogonalLoop=1;jettySize=auto;html=1;exitX=0;exitY=0.5;exitDx=0;exitDy=0;entryX=1;entryY=0.5;entryDx=0;entryDy=0;" parent="crW4DBNORJjYfhABTtt8-27" source="fMUYK2t4Ta2FRzAtBdcp-2" target="fMUYK2t4Ta2FRzAtBdcp-3" edge="1">
          <mxGeometry relative="1" as="geometry" />
        </mxCell>
        <mxCell id="Y04UfbKp6PvPN9PkAOyR-3" value="" style="edgeStyle=orthogonalEdgeStyle;rounded=0;orthogonalLoop=1;jettySize=auto;html=1;" edge="1" parent="crW4DBNORJjYfhABTtt8-27" source="Y04UfbKp6PvPN9PkAOyR-1" target="fMUYK2t4Ta2FRzAtBdcp-4">
          <mxGeometry relative="1" as="geometry" />
        </mxCell>
        <mxCell id="Y04UfbKp6PvPN9PkAOyR-6" value="" style="endArrow=classic;html=1;rounded=0;exitX=0.5;exitY=1;exitDx=0;exitDy=0;entryX=1;entryY=0.5;entryDx=0;entryDy=0;" edge="1" parent="crW4DBNORJjYfhABTtt8-27" source="fMUYK2t4Ta2FRzAtBdcp-4" target="Y04UfbKp6PvPN9PkAOyR-4">
          <mxGeometry width="50" height="50" relative="1" as="geometry">
            <mxPoint x="250" y="580" as="sourcePoint" />
            <mxPoint x="300" y="530" as="targetPoint" />
            <Array as="points">
              <mxPoint x="305" y="552" />
            </Array>
          </mxGeometry>
        </mxCell>
        <mxCell id="Y04UfbKp6PvPN9PkAOyR-8" value="" style="endArrow=classic;html=1;rounded=0;entryX=0;entryY=0.5;entryDx=0;entryDy=0;exitX=0.5;exitY=1;exitDx=0;exitDy=0;" edge="1" parent="crW4DBNORJjYfhABTtt8-27" source="Y04UfbKp6PvPN9PkAOyR-4" target="Y04UfbKp6PvPN9PkAOyR-7">
          <mxGeometry width="50" height="50" relative="1" as="geometry">
            <mxPoint x="240" y="570" as="sourcePoint" />
            <mxPoint x="290" y="520" as="targetPoint" />
            <Array as="points">
              <mxPoint x="100" y="605" />
            </Array>
          </mxGeometry>
        </mxCell>
        <mxCell id="Y04UfbKp6PvPN9PkAOyR-10" value="" style="endArrow=classic;html=1;rounded=0;exitX=0.5;exitY=1;exitDx=0;exitDy=0;entryX=1;entryY=0.5;entryDx=0;entryDy=0;" edge="1" parent="crW4DBNORJjYfhABTtt8-27" source="Y04UfbKp6PvPN9PkAOyR-7" target="Y04UfbKp6PvPN9PkAOyR-9">
          <mxGeometry width="50" height="50" relative="1" as="geometry">
            <mxPoint x="220" y="670" as="sourcePoint" />
            <mxPoint x="270" y="620" as="targetPoint" />
            <Array as="points">
              <mxPoint x="305" y="665" />
            </Array>
          </mxGeometry>
        </mxCell>
        <mxCell id="Y04UfbKp6PvPN9PkAOyR-14" value="" style="edgeStyle=orthogonalEdgeStyle;rounded=0;orthogonalLoop=1;jettySize=auto;html=1;" edge="1" parent="crW4DBNORJjYfhABTtt8-27" source="Y04UfbKp6PvPN9PkAOyR-11" target="Y04UfbKp6PvPN9PkAOyR-13">
          <mxGeometry relative="1" as="geometry" />
        </mxCell>
        <mxCell id="uKXweNaaNun5vioLD5mb-74" value="" style="edgeStyle=orthogonalEdgeStyle;rounded=0;orthogonalLoop=1;jettySize=auto;html=1;" edge="1" parent="crW4DBNORJjYfhABTtt8-27" source="fMUYK2t4Ta2FRzAtBdcp-6" target="uKXweNaaNun5vioLD5mb-73">
          <mxGeometry relative="1" as="geometry" />
        </mxCell>
        <mxCell id="uKXweNaaNun5vioLD5mb-80" value="" style="edgeStyle=orthogonalEdgeStyle;rounded=0;orthogonalLoop=1;jettySize=auto;html=1;" edge="1" parent="crW4DBNORJjYfhABTtt8-27" source="uKXweNaaNun5vioLD5mb-75" target="uKXweNaaNun5vioLD5mb-79">
          <mxGeometry relative="1" as="geometry" />
        </mxCell>
        <mxCell id="uKXweNaaNun5vioLD5mb-82" value="" style="endArrow=classic;html=1;rounded=0;exitX=0.5;exitY=1;exitDx=0;exitDy=0;entryX=1;entryY=0.5;entryDx=0;entryDy=0;" edge="1" parent="crW4DBNORJjYfhABTtt8-27" source="uKXweNaaNun5vioLD5mb-79" target="uKXweNaaNun5vioLD5mb-81">
          <mxGeometry width="50" height="50" relative="1" as="geometry">
            <mxPoint x="220" y="1040" as="sourcePoint" />
            <mxPoint x="270" y="990" as="targetPoint" />
            <Array as="points">
              <mxPoint x="300" y="1075" />
            </Array>
          </mxGeometry>
        </mxCell>
        <mxCell id="uKXweNaaNun5vioLD5mb-86" value="" style="edgeStyle=orthogonalEdgeStyle;rounded=0;orthogonalLoop=1;jettySize=auto;html=1;" edge="1" parent="crW4DBNORJjYfhABTtt8-27" source="uKXweNaaNun5vioLD5mb-83" target="uKXweNaaNun5vioLD5mb-85">
          <mxGeometry relative="1" as="geometry" />
        </mxCell>
        <mxCell id="uKXweNaaNun5vioLD5mb-96" value="" style="edgeStyle=orthogonalEdgeStyle;rounded=0;orthogonalLoop=1;jettySize=auto;html=1;" edge="1" parent="crW4DBNORJjYfhABTtt8-27" source="uKXweNaaNun5vioLD5mb-93" target="uKXweNaaNun5vioLD5mb-95">
          <mxGeometry relative="1" as="geometry" />
        </mxCell>
        <mxCell id="uKXweNaaNun5vioLD5mb-98" value="" style="endArrow=classic;html=1;rounded=0;exitX=0.5;exitY=1;exitDx=0;exitDy=0;entryX=0;entryY=0.5;entryDx=0;entryDy=0;" edge="1" parent="crW4DBNORJjYfhABTtt8-27" source="uKXweNaaNun5vioLD5mb-95" target="uKXweNaaNun5vioLD5mb-97">
          <mxGeometry width="50" height="50" relative="1" as="geometry">
            <mxPoint x="240" y="1340" as="sourcePoint" />
            <mxPoint x="290" y="1290" as="targetPoint" />
            <Array as="points">
              <mxPoint x="100" y="1405" />
            </Array>
          </mxGeometry>
        </mxCell>
        <mxCell id="uKXweNaaNun5vioLD5mb-100" value="" style="endArrow=classic;html=1;rounded=0;exitX=0.5;exitY=1;exitDx=0;exitDy=0;entryX=1;entryY=0.5;entryDx=0;entryDy=0;" edge="1" parent="crW4DBNORJjYfhABTtt8-27" source="uKXweNaaNun5vioLD5mb-97" target="uKXweNaaNun5vioLD5mb-99">
          <mxGeometry width="50" height="50" relative="1" as="geometry">
            <mxPoint x="240" y="1490" as="sourcePoint" />
            <mxPoint x="290" y="1440" as="targetPoint" />
            <Array as="points">
              <mxPoint x="300" y="1456" />
            </Array>
          </mxGeometry>
        </mxCell>
        <mxCell id="fMUYK2t4Ta2FRzAtBdcp-12" style="edgeStyle=orthogonalEdgeStyle;rounded=0;orthogonalLoop=1;jettySize=auto;html=1;exitX=1;exitY=0.5;exitDx=0;exitDy=0;entryX=0;entryY=0.5;entryDx=0;entryDy=0;" parent="crW4DBNORJjYfhABTtt8-27" source="crW4DBNORJjYfhABTtt8-31" target="crW4DBNORJjYfhABTtt8-32" edge="1">
          <mxGeometry relative="1" as="geometry" />
        </mxCell>
        <mxCell id="fMUYK2t4Ta2FRzAtBdcp-14" style="edgeStyle=orthogonalEdgeStyle;rounded=0;orthogonalLoop=1;jettySize=auto;html=1;exitX=0;exitY=0.5;exitDx=0;exitDy=0;exitPerimeter=0;entryX=0.5;entryY=1;entryDx=0;entryDy=0;" parent="crW4DBNORJjYfhABTtt8-27" source="fMUYK2t4Ta2FRzAtBdcp-1" target="crW4DBNORJjYfhABTtt8-31" edge="1">
          <mxGeometry relative="1" as="geometry" />
        </mxCell>
        <mxCell id="uKXweNaaNun5vioLD5mb-112" value="" style="edgeStyle=orthogonalEdgeStyle;rounded=0;orthogonalLoop=1;jettySize=auto;html=1;" edge="1" parent="crW4DBNORJjYfhABTtt8-27" source="uKXweNaaNun5vioLD5mb-109" target="uKXweNaaNun5vioLD5mb-111">
          <mxGeometry relative="1" as="geometry" />
        </mxCell>
        <mxCell id="uKXweNaaNun5vioLD5mb-5" value="" style="group" connectable="0" vertex="1" parent="1">
          <mxGeometry x="1070" y="250" width="400" height="1630" as="geometry" />
        </mxCell>
        <mxCell id="uKXweNaaNun5vioLD5mb-6" value="Admin" style="swimlane;whiteSpace=wrap;html=1;" vertex="1" parent="uKXweNaaNun5vioLD5mb-5">
          <mxGeometry width="200" height="1630" as="geometry" />
        </mxCell>
        <mxCell id="uKXweNaaNun5vioLD5mb-121" value="Delete Room" style="html=1;whiteSpace=wrap;" vertex="1" parent="uKXweNaaNun5vioLD5mb-6">
          <mxGeometry x="45" y="180" width="110" height="50" as="geometry" />
        </mxCell>
        <mxCell id="uKXweNaaNun5vioLD5mb-125" value="Confirm Deletion" style="html=1;whiteSpace=wrap;" vertex="1" parent="uKXweNaaNun5vioLD5mb-6">
          <mxGeometry x="45" y="320" width="110" height="50" as="geometry" />
        </mxCell>
        <mxCell id="uKXweNaaNun5vioLD5mb-135" value="Edit User Details" style="html=1;whiteSpace=wrap;" vertex="1" parent="uKXweNaaNun5vioLD5mb-6">
          <mxGeometry x="50" y="470" width="110" height="50" as="geometry" />
        </mxCell>
        <mxCell id="uKXweNaaNun5vioLD5mb-140" value="Delete User" style="html=1;whiteSpace=wrap;" vertex="1" parent="uKXweNaaNun5vioLD5mb-6">
          <mxGeometry x="50" y="620" width="110" height="50" as="geometry" />
        </mxCell>
        <mxCell id="uKXweNaaNun5vioLD5mb-144" value="Edit Own Profile" style="html=1;whiteSpace=wrap;" vertex="1" parent="uKXweNaaNun5vioLD5mb-6">
          <mxGeometry x="50" y="740" width="110" height="50" as="geometry" />
        </mxCell>
        <mxCell id="uKXweNaaNun5vioLD5mb-148" value="Logout" style="html=1;whiteSpace=wrap;" vertex="1" parent="uKXweNaaNun5vioLD5mb-6">
          <mxGeometry x="50" y="880" width="110" height="50" as="geometry" />
        </mxCell>
        <mxCell id="uKXweNaaNun5vioLD5mb-18" value="System" style="swimlane;whiteSpace=wrap;html=1;" vertex="1" parent="uKXweNaaNun5vioLD5mb-5">
          <mxGeometry x="200" width="200" height="1630" as="geometry" />
        </mxCell>
        <mxCell id="uKXweNaaNun5vioLD5mb-105" value="A" style="ellipse;whiteSpace=wrap;html=1;aspect=fixed;" vertex="1" parent="uKXweNaaNun5vioLD5mb-18">
          <mxGeometry x="85" y="40" width="30" height="30" as="geometry" />
        </mxCell>
        <mxCell id="uKXweNaaNun5vioLD5mb-107" value="" style="edgeStyle=orthogonalEdgeStyle;rounded=0;orthogonalLoop=1;jettySize=auto;html=1;entryX=0.5;entryY=0;entryDx=0;entryDy=0;" edge="1" parent="uKXweNaaNun5vioLD5mb-18" source="uKXweNaaNun5vioLD5mb-105" target="uKXweNaaNun5vioLD5mb-118">
          <mxGeometry relative="1" as="geometry">
            <mxPoint x="100" y="114" as="targetPoint" />
          </mxGeometry>
        </mxCell>
        <mxCell id="uKXweNaaNun5vioLD5mb-120" value="" style="edgeStyle=orthogonalEdgeStyle;rounded=0;orthogonalLoop=1;jettySize=auto;html=1;" edge="1" parent="uKXweNaaNun5vioLD5mb-18" source="uKXweNaaNun5vioLD5mb-118" target="uKXweNaaNun5vioLD5mb-119">
          <mxGeometry relative="1" as="geometry" />
        </mxCell>
        <mxCell id="uKXweNaaNun5vioLD5mb-118" value="Room Edited" style="html=1;whiteSpace=wrap;" vertex="1" parent="uKXweNaaNun5vioLD5mb-18">
          <mxGeometry x="37.5" y="100" width="125" height="50" as="geometry" />
        </mxCell>
        <mxCell id="uKXweNaaNun5vioLD5mb-119" value="Display Room List" style="html=1;whiteSpace=wrap;" vertex="1" parent="uKXweNaaNun5vioLD5mb-18">
          <mxGeometry x="37.5" y="180" width="125" height="50" as="geometry" />
        </mxCell>
        <mxCell id="uKXweNaaNun5vioLD5mb-123" value="Display Delete Confirmation" style="html=1;whiteSpace=wrap;" vertex="1" parent="uKXweNaaNun5vioLD5mb-18">
          <mxGeometry x="37.5" y="260" width="125" height="50" as="geometry" />
        </mxCell>
        <mxCell id="uKXweNaaNun5vioLD5mb-132" value="" style="edgeStyle=orthogonalEdgeStyle;rounded=0;orthogonalLoop=1;jettySize=auto;html=1;" edge="1" parent="uKXweNaaNun5vioLD5mb-18" source="uKXweNaaNun5vioLD5mb-126" target="uKXweNaaNun5vioLD5mb-131">
          <mxGeometry relative="1" as="geometry" />
        </mxCell>
        <mxCell id="uKXweNaaNun5vioLD5mb-126" value="Delete Confirmed?" style="strokeWidth=2;html=1;shape=mxgraph.flowchart.decision;whiteSpace=wrap;fillColor=default;strokeColor=default;" vertex="1" parent="uKXweNaaNun5vioLD5mb-18">
          <mxGeometry x="50" y="370" width="100" height="70" as="geometry" />
        </mxCell>
        <mxCell id="uKXweNaaNun5vioLD5mb-129" value="" style="endArrow=classic;html=1;rounded=0;entryX=1;entryY=0.5;entryDx=0;entryDy=0;exitX=1;exitY=0.5;exitDx=0;exitDy=0;exitPerimeter=0;" edge="1" parent="uKXweNaaNun5vioLD5mb-18" source="uKXweNaaNun5vioLD5mb-126" target="uKXweNaaNun5vioLD5mb-119">
          <mxGeometry width="50" height="50" relative="1" as="geometry">
            <mxPoint x="-90" y="380" as="sourcePoint" />
            <mxPoint x="-40" y="330" as="targetPoint" />
            <Array as="points">
              <mxPoint x="190" y="405" />
              <mxPoint x="190" y="205" />
            </Array>
          </mxGeometry>
        </mxCell>
        <mxCell id="uKXweNaaNun5vioLD5mb-116" value="No" style="text;html=1;strokeColor=none;fillColor=none;align=center;verticalAlign=middle;whiteSpace=wrap;rounded=0;" vertex="1" parent="uKXweNaaNun5vioLD5mb-18">
          <mxGeometry x="130" y="370" width="60" height="30" as="geometry" />
        </mxCell>
        <mxCell id="uKXweNaaNun5vioLD5mb-131" value="Room Deleted" style="html=1;whiteSpace=wrap;" vertex="1" parent="uKXweNaaNun5vioLD5mb-18">
          <mxGeometry x="37.5" y="470" width="125" height="50" as="geometry" />
        </mxCell>
        <mxCell id="uKXweNaaNun5vioLD5mb-133" value="Yes" style="text;html=1;strokeColor=none;fillColor=none;align=center;verticalAlign=middle;whiteSpace=wrap;rounded=0;" vertex="1" parent="uKXweNaaNun5vioLD5mb-18">
          <mxGeometry x="90" y="440" width="60" height="30" as="geometry" />
        </mxCell>
        <mxCell id="uKXweNaaNun5vioLD5mb-138" value="User Details Edited" style="html=1;whiteSpace=wrap;" vertex="1" parent="uKXweNaaNun5vioLD5mb-18">
          <mxGeometry x="37.5" y="560" width="125" height="50" as="geometry" />
        </mxCell>
        <mxCell id="uKXweNaaNun5vioLD5mb-142" value="User Deleted" style="html=1;whiteSpace=wrap;" vertex="1" parent="uKXweNaaNun5vioLD5mb-18">
          <mxGeometry x="37.5" y="680" width="125" height="50" as="geometry" />
        </mxCell>
        <mxCell id="uKXweNaaNun5vioLD5mb-146" value="Profile Edited" style="html=1;whiteSpace=wrap;" vertex="1" parent="uKXweNaaNun5vioLD5mb-18">
          <mxGeometry x="37.5" y="810" width="125" height="50" as="geometry" />
        </mxCell>
        <mxCell id="uKXweNaaNun5vioLD5mb-152" value="" style="edgeStyle=orthogonalEdgeStyle;rounded=0;orthogonalLoop=1;jettySize=auto;html=1;" edge="1" parent="uKXweNaaNun5vioLD5mb-18" source="uKXweNaaNun5vioLD5mb-150" target="uKXweNaaNun5vioLD5mb-151">
          <mxGeometry relative="1" as="geometry" />
        </mxCell>
        <mxCell id="uKXweNaaNun5vioLD5mb-150" value="Logged out" style="html=1;whiteSpace=wrap;" vertex="1" parent="uKXweNaaNun5vioLD5mb-18">
          <mxGeometry x="37.5" y="950" width="125" height="50" as="geometry" />
        </mxCell>
        <mxCell id="uKXweNaaNun5vioLD5mb-154" value="" style="edgeStyle=orthogonalEdgeStyle;rounded=0;orthogonalLoop=1;jettySize=auto;html=1;" edge="1" parent="uKXweNaaNun5vioLD5mb-18" source="uKXweNaaNun5vioLD5mb-151" target="fMUYK2t4Ta2FRzAtBdcp-52">
          <mxGeometry relative="1" as="geometry" />
        </mxCell>
        <mxCell id="uKXweNaaNun5vioLD5mb-151" value="Display Login" style="html=1;whiteSpace=wrap;" vertex="1" parent="uKXweNaaNun5vioLD5mb-18">
          <mxGeometry x="37.5" y="1040" width="125" height="50" as="geometry" />
        </mxCell>
        <mxCell id="fMUYK2t4Ta2FRzAtBdcp-52" value="" style="ellipse;html=1;shape=endState;fillColor=#000000;strokeColor=#ff0000;" parent="uKXweNaaNun5vioLD5mb-18" vertex="1">
          <mxGeometry x="85" y="1140" width="30" height="30" as="geometry" />
        </mxCell>
        <mxCell id="uKXweNaaNun5vioLD5mb-122" value="" style="edgeStyle=orthogonalEdgeStyle;rounded=0;orthogonalLoop=1;jettySize=auto;html=1;" edge="1" parent="uKXweNaaNun5vioLD5mb-5" source="uKXweNaaNun5vioLD5mb-119" target="uKXweNaaNun5vioLD5mb-121">
          <mxGeometry relative="1" as="geometry" />
        </mxCell>
        <mxCell id="uKXweNaaNun5vioLD5mb-124" value="" style="endArrow=classic;html=1;rounded=0;exitX=0.5;exitY=1;exitDx=0;exitDy=0;entryX=0;entryY=0.5;entryDx=0;entryDy=0;" edge="1" parent="uKXweNaaNun5vioLD5mb-5" source="uKXweNaaNun5vioLD5mb-121" target="uKXweNaaNun5vioLD5mb-123">
          <mxGeometry width="50" height="50" relative="1" as="geometry">
            <mxPoint x="-60" y="270" as="sourcePoint" />
            <mxPoint x="-10" y="220" as="targetPoint" />
            <Array as="points">
              <mxPoint x="100" y="285" />
            </Array>
          </mxGeometry>
        </mxCell>
        <mxCell id="uKXweNaaNun5vioLD5mb-127" value="" style="endArrow=classic;html=1;rounded=0;exitX=0.5;exitY=1;exitDx=0;exitDy=0;entryX=1;entryY=0.5;entryDx=0;entryDy=0;" edge="1" parent="uKXweNaaNun5vioLD5mb-5" source="uKXweNaaNun5vioLD5mb-123" target="uKXweNaaNun5vioLD5mb-125">
          <mxGeometry width="50" height="50" relative="1" as="geometry">
            <mxPoint x="110" y="380" as="sourcePoint" />
            <mxPoint x="160" y="330" as="targetPoint" />
            <Array as="points">
              <mxPoint x="300" y="345" />
            </Array>
          </mxGeometry>
        </mxCell>
        <mxCell id="uKXweNaaNun5vioLD5mb-128" value="" style="endArrow=classic;html=1;rounded=0;entryX=0;entryY=0.5;entryDx=0;entryDy=0;entryPerimeter=0;exitX=0.5;exitY=1;exitDx=0;exitDy=0;" edge="1" parent="uKXweNaaNun5vioLD5mb-5" source="uKXweNaaNun5vioLD5mb-125" target="uKXweNaaNun5vioLD5mb-126">
          <mxGeometry width="50" height="50" relative="1" as="geometry">
            <mxPoint x="110" y="380" as="sourcePoint" />
            <mxPoint x="160" y="330" as="targetPoint" />
            <Array as="points">
              <mxPoint x="100" y="405" />
            </Array>
          </mxGeometry>
        </mxCell>
        <mxCell id="uKXweNaaNun5vioLD5mb-136" value="" style="edgeStyle=orthogonalEdgeStyle;rounded=0;orthogonalLoop=1;jettySize=auto;html=1;" edge="1" parent="uKXweNaaNun5vioLD5mb-5" source="uKXweNaaNun5vioLD5mb-131" target="uKXweNaaNun5vioLD5mb-135">
          <mxGeometry relative="1" as="geometry" />
        </mxCell>
        <mxCell id="uKXweNaaNun5vioLD5mb-139" value="" style="endArrow=classic;html=1;rounded=0;exitX=0.5;exitY=1;exitDx=0;exitDy=0;entryX=0;entryY=0.5;entryDx=0;entryDy=0;" edge="1" parent="uKXweNaaNun5vioLD5mb-5" source="uKXweNaaNun5vioLD5mb-135" target="uKXweNaaNun5vioLD5mb-138">
          <mxGeometry width="50" height="50" relative="1" as="geometry">
            <mxPoint x="170" y="580" as="sourcePoint" />
            <mxPoint x="220" y="530" as="targetPoint" />
            <Array as="points">
              <mxPoint x="105" y="585" />
            </Array>
          </mxGeometry>
        </mxCell>
        <mxCell id="uKXweNaaNun5vioLD5mb-141" value="" style="endArrow=classic;html=1;rounded=0;exitX=0.5;exitY=1;exitDx=0;exitDy=0;entryX=1;entryY=0.5;entryDx=0;entryDy=0;" edge="1" parent="uKXweNaaNun5vioLD5mb-5" source="uKXweNaaNun5vioLD5mb-138" target="uKXweNaaNun5vioLD5mb-140">
          <mxGeometry width="50" height="50" relative="1" as="geometry">
            <mxPoint x="170" y="580" as="sourcePoint" />
            <mxPoint x="220" y="530" as="targetPoint" />
            <Array as="points">
              <mxPoint x="300" y="645" />
            </Array>
          </mxGeometry>
        </mxCell>
        <mxCell id="uKXweNaaNun5vioLD5mb-143" value="" style="endArrow=classic;html=1;rounded=0;exitX=0.5;exitY=1;exitDx=0;exitDy=0;entryX=0;entryY=0.5;entryDx=0;entryDy=0;" edge="1" parent="uKXweNaaNun5vioLD5mb-5" source="uKXweNaaNun5vioLD5mb-140" target="uKXweNaaNun5vioLD5mb-142">
          <mxGeometry width="50" height="50" relative="1" as="geometry">
            <mxPoint x="170" y="750" as="sourcePoint" />
            <mxPoint x="220" y="700" as="targetPoint" />
            <Array as="points">
              <mxPoint x="105" y="705" />
            </Array>
          </mxGeometry>
        </mxCell>
        <mxCell id="uKXweNaaNun5vioLD5mb-145" value="" style="endArrow=classic;html=1;rounded=0;exitX=0.5;exitY=1;exitDx=0;exitDy=0;entryX=1;entryY=0.5;entryDx=0;entryDy=0;" edge="1" parent="uKXweNaaNun5vioLD5mb-5" source="uKXweNaaNun5vioLD5mb-142" target="uKXweNaaNun5vioLD5mb-144">
          <mxGeometry width="50" height="50" relative="1" as="geometry">
            <mxPoint x="170" y="750" as="sourcePoint" />
            <mxPoint x="220" y="700" as="targetPoint" />
            <Array as="points">
              <mxPoint x="300" y="765" />
            </Array>
          </mxGeometry>
        </mxCell>
        <mxCell id="uKXweNaaNun5vioLD5mb-147" value="" style="endArrow=classic;html=1;rounded=0;exitX=0.5;exitY=1;exitDx=0;exitDy=0;entryX=0;entryY=0.5;entryDx=0;entryDy=0;" edge="1" parent="uKXweNaaNun5vioLD5mb-5" source="uKXweNaaNun5vioLD5mb-144" target="uKXweNaaNun5vioLD5mb-146">
          <mxGeometry width="50" height="50" relative="1" as="geometry">
            <mxPoint x="250" y="830" as="sourcePoint" />
            <mxPoint x="300" y="780" as="targetPoint" />
            <Array as="points">
              <mxPoint x="105" y="835" />
            </Array>
          </mxGeometry>
        </mxCell>
        <mxCell id="uKXweNaaNun5vioLD5mb-149" value="" style="endArrow=classic;html=1;rounded=0;exitX=0.5;exitY=1;exitDx=0;exitDy=0;entryX=1;entryY=0.5;entryDx=0;entryDy=0;" edge="1" parent="uKXweNaaNun5vioLD5mb-5" source="uKXweNaaNun5vioLD5mb-146" target="uKXweNaaNun5vioLD5mb-148">
          <mxGeometry width="50" height="50" relative="1" as="geometry">
            <mxPoint x="340" y="980" as="sourcePoint" />
            <mxPoint x="390" y="930" as="targetPoint" />
            <Array as="points">
              <mxPoint x="300" y="905" />
            </Array>
          </mxGeometry>
        </mxCell>
        <mxCell id="uKXweNaaNun5vioLD5mb-153" value="" style="endArrow=classic;html=1;rounded=0;exitX=0.5;exitY=1;exitDx=0;exitDy=0;entryX=0;entryY=0.5;entryDx=0;entryDy=0;" edge="1" parent="uKXweNaaNun5vioLD5mb-5" source="uKXweNaaNun5vioLD5mb-148" target="uKXweNaaNun5vioLD5mb-150">
          <mxGeometry width="50" height="50" relative="1" as="geometry">
            <mxPoint x="340" y="1180" as="sourcePoint" />
            <mxPoint x="390" y="1130" as="targetPoint" />
            <Array as="points">
              <mxPoint x="105" y="975" />
            </Array>
          </mxGeometry>
        </mxCell>
        <mxCell id="uKXweNaaNun5vioLD5mb-130" value="No" style="text;html=1;strokeColor=none;fillColor=none;align=center;verticalAlign=middle;whiteSpace=wrap;rounded=0;" vertex="1" parent="1">
          <mxGeometry x="885" y="1740" width="60" height="30" as="geometry" />
        </mxCell>
      </root>
    </mxGraphModel>
  </diagram>
  <diagram name="Activity User" id="_4srkRxJRCNH5mHIH2SL">
    <mxGraphModel dx="2219" dy="613" grid="1" gridSize="10" guides="1" tooltips="1" connect="1" arrows="1" fold="1" page="1" pageScale="1" pageWidth="1169" pageHeight="827" math="0" shadow="0">
      <root>
        <mxCell id="XqVMcMZKZbUYrJJZnUzj-0" />
        <mxCell id="XqVMcMZKZbUYrJJZnUzj-1" parent="XqVMcMZKZbUYrJJZnUzj-0" />
        <mxCell id="XqVMcMZKZbUYrJJZnUzj-2" value="" style="group" parent="XqVMcMZKZbUYrJJZnUzj-1" vertex="1" connectable="0">
          <mxGeometry x="560" y="250" width="400" height="1630" as="geometry" />
        </mxCell>
        <mxCell id="XqVMcMZKZbUYrJJZnUzj-3" value="User" style="swimlane;whiteSpace=wrap;html=1;" parent="XqVMcMZKZbUYrJJZnUzj-2" vertex="1">
          <mxGeometry width="200" height="1110" as="geometry" />
        </mxCell>
        <mxCell id="XqVMcMZKZbUYrJJZnUzj-4" value="" style="ellipse;html=1;shape=startState;fillColor=#000000;strokeColor=#ff0000;" parent="XqVMcMZKZbUYrJJZnUzj-3" vertex="1">
          <mxGeometry x="85" y="30" width="30" height="30" as="geometry" />
        </mxCell>
        <mxCell id="XqVMcMZKZbUYrJJZnUzj-5" value="" style="edgeStyle=orthogonalEdgeStyle;html=1;verticalAlign=bottom;endArrow=open;endSize=8;strokeColor=#ff0000;rounded=0;" parent="XqVMcMZKZbUYrJJZnUzj-3" source="XqVMcMZKZbUYrJJZnUzj-4" edge="1">
          <mxGeometry relative="1" as="geometry">
            <mxPoint x="100" y="120" as="targetPoint" />
          </mxGeometry>
        </mxCell>
        <mxCell id="XqVMcMZKZbUYrJJZnUzj-6" value="navigate to web" style="html=1;whiteSpace=wrap;" parent="XqVMcMZKZbUYrJJZnUzj-3" vertex="1">
          <mxGeometry x="45" y="120" width="110" height="50" as="geometry" />
        </mxCell>
        <mxCell id="lVPjKF7K5_WunW_nWloG-1" value="Search Room" style="html=1;whiteSpace=wrap;" parent="XqVMcMZKZbUYrJJZnUzj-3" vertex="1">
          <mxGeometry x="45" y="370" width="110" height="50" as="geometry" />
        </mxCell>
        <mxCell id="XqVMcMZKZbUYrJJZnUzj-7" value="System" style="swimlane;whiteSpace=wrap;html=1;" parent="XqVMcMZKZbUYrJJZnUzj-2" vertex="1">
          <mxGeometry x="200" width="200" height="1110" as="geometry" />
        </mxCell>
        <mxCell id="XqVMcMZKZbUYrJJZnUzj-32" value="Booking Event" style="html=1;whiteSpace=wrap;" parent="XqVMcMZKZbUYrJJZnUzj-7" vertex="1">
          <mxGeometry x="-155" y="610" width="110" height="50" as="geometry" />
        </mxCell>
        <mxCell id="XqVMcMZKZbUYrJJZnUzj-38" style="edgeStyle=orthogonalEdgeStyle;rounded=0;orthogonalLoop=1;jettySize=auto;html=1;exitX=0;exitY=0.5;exitDx=0;exitDy=0;entryX=1;entryY=0.5;entryDx=0;entryDy=0;" parent="XqVMcMZKZbUYrJJZnUzj-7" source="XqVMcMZKZbUYrJJZnUzj-39" target="XqVMcMZKZbUYrJJZnUzj-32" edge="1">
          <mxGeometry relative="1" as="geometry" />
        </mxCell>
        <mxCell id="XqVMcMZKZbUYrJJZnUzj-39" value="Display result" style="html=1;whiteSpace=wrap;" parent="XqVMcMZKZbUYrJJZnUzj-7" vertex="1">
          <mxGeometry x="50" y="610" width="110" height="50" as="geometry" />
        </mxCell>
        <mxCell id="XqVMcMZKZbUYrJJZnUzj-41" value="Display form" style="html=1;whiteSpace=wrap;" parent="XqVMcMZKZbUYrJJZnUzj-7" vertex="1">
          <mxGeometry x="50" y="691" width="110" height="50" as="geometry" />
        </mxCell>
        <mxCell id="XqVMcMZKZbUYrJJZnUzj-31" style="edgeStyle=orthogonalEdgeStyle;rounded=0;orthogonalLoop=1;jettySize=auto;html=1;exitX=0.5;exitY=1;exitDx=0;exitDy=0;entryX=0;entryY=0.5;entryDx=0;entryDy=0;" parent="XqVMcMZKZbUYrJJZnUzj-7" source="XqVMcMZKZbUYrJJZnUzj-32" target="XqVMcMZKZbUYrJJZnUzj-41" edge="1">
          <mxGeometry relative="1" as="geometry" />
        </mxCell>
        <mxCell id="XqVMcMZKZbUYrJJZnUzj-43" value="Room Booked" style="html=1;whiteSpace=wrap;" parent="XqVMcMZKZbUYrJJZnUzj-7" vertex="1">
          <mxGeometry x="50" y="900" width="110" height="50" as="geometry" />
        </mxCell>
        <mxCell id="XqVMcMZKZbUYrJJZnUzj-44" style="edgeStyle=orthogonalEdgeStyle;rounded=0;orthogonalLoop=1;jettySize=auto;html=1;exitX=1;exitY=0.5;exitDx=0;exitDy=0;exitPerimeter=0;entryX=1;entryY=0.5;entryDx=0;entryDy=0;" parent="XqVMcMZKZbUYrJJZnUzj-7" source="XqVMcMZKZbUYrJJZnUzj-46" target="XqVMcMZKZbUYrJJZnUzj-41" edge="1">
          <mxGeometry relative="1" as="geometry" />
        </mxCell>
        <mxCell id="XqVMcMZKZbUYrJJZnUzj-45" style="edgeStyle=orthogonalEdgeStyle;rounded=0;orthogonalLoop=1;jettySize=auto;html=1;exitX=0.5;exitY=1;exitDx=0;exitDy=0;exitPerimeter=0;entryX=0.5;entryY=0;entryDx=0;entryDy=0;" parent="XqVMcMZKZbUYrJJZnUzj-7" source="XqVMcMZKZbUYrJJZnUzj-46" target="XqVMcMZKZbUYrJJZnUzj-43" edge="1">
          <mxGeometry relative="1" as="geometry" />
        </mxCell>
        <mxCell id="XqVMcMZKZbUYrJJZnUzj-46" value="Room Available?" style="strokeWidth=2;html=1;shape=mxgraph.flowchart.decision;whiteSpace=wrap;" parent="XqVMcMZKZbUYrJJZnUzj-7" vertex="1">
          <mxGeometry x="55" y="770" width="100" height="100" as="geometry" />
        </mxCell>
        <mxCell id="XqVMcMZKZbUYrJJZnUzj-40" style="edgeStyle=orthogonalEdgeStyle;rounded=0;orthogonalLoop=1;jettySize=auto;html=1;exitX=0.5;exitY=1;exitDx=0;exitDy=0;entryX=0.5;entryY=0;entryDx=0;entryDy=0;entryPerimeter=0;" parent="XqVMcMZKZbUYrJJZnUzj-7" source="XqVMcMZKZbUYrJJZnUzj-41" target="XqVMcMZKZbUYrJJZnUzj-46" edge="1">
          <mxGeometry relative="1" as="geometry" />
        </mxCell>
        <mxCell id="XqVMcMZKZbUYrJJZnUzj-58" value="Display Index" style="html=1;whiteSpace=wrap;" parent="XqVMcMZKZbUYrJJZnUzj-7" vertex="1">
          <mxGeometry x="45" y="970" width="110" height="50" as="geometry" />
        </mxCell>
        <mxCell id="XqVMcMZKZbUYrJJZnUzj-55" style="edgeStyle=orthogonalEdgeStyle;rounded=0;orthogonalLoop=1;jettySize=auto;html=1;exitX=0.5;exitY=1;exitDx=0;exitDy=0;entryX=0.5;entryY=0;entryDx=0;entryDy=0;" parent="XqVMcMZKZbUYrJJZnUzj-7" target="XqVMcMZKZbUYrJJZnUzj-58" edge="1">
          <mxGeometry relative="1" as="geometry">
            <mxPoint x="100" y="950" as="sourcePoint" />
          </mxGeometry>
        </mxCell>
        <mxCell id="XqVMcMZKZbUYrJJZnUzj-59" value="" style="ellipse;html=1;shape=endState;fillColor=#000000;strokeColor=#ff0000;" parent="XqVMcMZKZbUYrJJZnUzj-7" vertex="1">
          <mxGeometry x="85" y="1050" width="30" height="30" as="geometry" />
        </mxCell>
        <mxCell id="XqVMcMZKZbUYrJJZnUzj-57" style="edgeStyle=orthogonalEdgeStyle;rounded=0;orthogonalLoop=1;jettySize=auto;html=1;exitX=0.5;exitY=1;exitDx=0;exitDy=0;entryX=0.5;entryY=0;entryDx=0;entryDy=0;" parent="XqVMcMZKZbUYrJJZnUzj-7" source="XqVMcMZKZbUYrJJZnUzj-58" target="XqVMcMZKZbUYrJJZnUzj-59" edge="1">
          <mxGeometry relative="1" as="geometry" />
        </mxCell>
        <mxCell id="lVPjKF7K5_WunW_nWloG-0" value="Display index" style="html=1;whiteSpace=wrap;" parent="XqVMcMZKZbUYrJJZnUzj-7" vertex="1">
          <mxGeometry x="50" y="370" width="110" height="50" as="geometry" />
        </mxCell>
        <mxCell id="5MsKTkhBLbZcvlWIpY6W-3" style="edgeStyle=orthogonalEdgeStyle;rounded=0;orthogonalLoop=1;jettySize=auto;html=1;exitX=0.5;exitY=0;exitDx=0;exitDy=0;exitPerimeter=0;entryX=0.5;entryY=1;entryDx=0;entryDy=0;" parent="XqVMcMZKZbUYrJJZnUzj-7" source="5MsKTkhBLbZcvlWIpY6W-0" target="lVPjKF7K5_WunW_nWloG-0" edge="1">
          <mxGeometry relative="1" as="geometry" />
        </mxCell>
        <mxCell id="5MsKTkhBLbZcvlWIpY6W-4" style="edgeStyle=orthogonalEdgeStyle;rounded=0;orthogonalLoop=1;jettySize=auto;html=1;exitX=0.5;exitY=1;exitDx=0;exitDy=0;exitPerimeter=0;entryX=0.5;entryY=0;entryDx=0;entryDy=0;" parent="XqVMcMZKZbUYrJJZnUzj-7" source="5MsKTkhBLbZcvlWIpY6W-0" target="XqVMcMZKZbUYrJJZnUzj-39" edge="1">
          <mxGeometry relative="1" as="geometry" />
        </mxCell>
        <mxCell id="5MsKTkhBLbZcvlWIpY6W-0" value="Find ?" style="strokeWidth=2;html=1;shape=mxgraph.flowchart.decision;whiteSpace=wrap;" parent="XqVMcMZKZbUYrJJZnUzj-7" vertex="1">
          <mxGeometry x="55" y="470" width="100" height="100" as="geometry" />
        </mxCell>
        <mxCell id="iZB-IHbrh6yqb_6_CZMh-0" value="Yes" style="text;html=1;strokeColor=none;fillColor=none;align=center;verticalAlign=middle;whiteSpace=wrap;rounded=0;" parent="XqVMcMZKZbUYrJJZnUzj-7" vertex="1">
          <mxGeometry x="110" y="340" width="60" height="30" as="geometry" />
        </mxCell>
        <mxCell id="iZB-IHbrh6yqb_6_CZMh-1" value="No" style="text;html=1;strokeColor=none;fillColor=none;align=center;verticalAlign=middle;whiteSpace=wrap;rounded=0;" parent="XqVMcMZKZbUYrJJZnUzj-7" vertex="1">
          <mxGeometry y="280" width="60" height="30" as="geometry" />
        </mxCell>
        <mxCell id="iZB-IHbrh6yqb_6_CZMh-2" value="Yes" style="text;html=1;strokeColor=none;fillColor=none;align=center;verticalAlign=middle;whiteSpace=wrap;rounded=0;" parent="XqVMcMZKZbUYrJJZnUzj-7" vertex="1">
          <mxGeometry x="100" y="580" width="60" height="30" as="geometry" />
        </mxCell>
        <mxCell id="iZB-IHbrh6yqb_6_CZMh-3" value="No" style="text;html=1;strokeColor=none;fillColor=none;align=center;verticalAlign=middle;whiteSpace=wrap;rounded=0;" parent="XqVMcMZKZbUYrJJZnUzj-7" vertex="1">
          <mxGeometry x="95" y="450" width="60" height="30" as="geometry" />
        </mxCell>
        <mxCell id="iZB-IHbrh6yqb_6_CZMh-4" value="Yes" style="text;html=1;strokeColor=none;fillColor=none;align=center;verticalAlign=middle;whiteSpace=wrap;rounded=0;" parent="XqVMcMZKZbUYrJJZnUzj-7" vertex="1">
          <mxGeometry x="100" y="870" width="60" height="30" as="geometry" />
        </mxCell>
        <mxCell id="iZB-IHbrh6yqb_6_CZMh-5" value="No" style="text;html=1;strokeColor=none;fillColor=none;align=center;verticalAlign=middle;whiteSpace=wrap;rounded=0;" parent="XqVMcMZKZbUYrJJZnUzj-7" vertex="1">
          <mxGeometry x="130" y="780" width="60" height="30" as="geometry" />
        </mxCell>
        <mxCell id="5MsKTkhBLbZcvlWIpY6W-1" style="edgeStyle=orthogonalEdgeStyle;rounded=0;orthogonalLoop=1;jettySize=auto;html=1;exitX=0;exitY=0.5;exitDx=0;exitDy=0;entryX=1;entryY=0.5;entryDx=0;entryDy=0;" parent="XqVMcMZKZbUYrJJZnUzj-2" source="lVPjKF7K5_WunW_nWloG-0" target="lVPjKF7K5_WunW_nWloG-1" edge="1">
          <mxGeometry relative="1" as="geometry" />
        </mxCell>
        <mxCell id="5MsKTkhBLbZcvlWIpY6W-2" style="edgeStyle=orthogonalEdgeStyle;rounded=0;orthogonalLoop=1;jettySize=auto;html=1;exitX=0.5;exitY=1;exitDx=0;exitDy=0;entryX=0;entryY=0.5;entryDx=0;entryDy=0;entryPerimeter=0;" parent="XqVMcMZKZbUYrJJZnUzj-2" source="lVPjKF7K5_WunW_nWloG-1" target="5MsKTkhBLbZcvlWIpY6W-0" edge="1">
          <mxGeometry relative="1" as="geometry" />
        </mxCell>
        <mxCell id="XqVMcMZKZbUYrJJZnUzj-8" style="edgeStyle=orthogonalEdgeStyle;rounded=0;orthogonalLoop=1;jettySize=auto;html=1;exitX=1;exitY=0.5;exitDx=0;exitDy=0;entryX=0;entryY=0.5;entryDx=0;entryDy=0;" parent="XqVMcMZKZbUYrJJZnUzj-1" source="XqVMcMZKZbUYrJJZnUzj-9" target="XqVMcMZKZbUYrJJZnUzj-11" edge="1">
          <mxGeometry relative="1" as="geometry" />
        </mxCell>
        <mxCell id="XqVMcMZKZbUYrJJZnUzj-9" value="Entry Email and password" style="html=1;whiteSpace=wrap;" parent="XqVMcMZKZbUYrJJZnUzj-1" vertex="1">
          <mxGeometry x="605" y="440" width="110" height="50" as="geometry" />
        </mxCell>
        <mxCell id="XqVMcMZKZbUYrJJZnUzj-10" style="edgeStyle=orthogonalEdgeStyle;rounded=0;orthogonalLoop=1;jettySize=auto;html=1;exitX=0.5;exitY=1;exitDx=0;exitDy=0;entryX=0.5;entryY=0;entryDx=0;entryDy=0;entryPerimeter=0;" parent="XqVMcMZKZbUYrJJZnUzj-1" source="XqVMcMZKZbUYrJJZnUzj-11" target="XqVMcMZKZbUYrJJZnUzj-14" edge="1">
          <mxGeometry relative="1" as="geometry" />
        </mxCell>
        <mxCell id="XqVMcMZKZbUYrJJZnUzj-11" value="validation" style="html=1;whiteSpace=wrap;" parent="XqVMcMZKZbUYrJJZnUzj-1" vertex="1">
          <mxGeometry x="810" y="440" width="110" height="50" as="geometry" />
        </mxCell>
        <mxCell id="XqVMcMZKZbUYrJJZnUzj-12" style="edgeStyle=orthogonalEdgeStyle;rounded=0;orthogonalLoop=1;jettySize=auto;html=1;exitX=0;exitY=0.5;exitDx=0;exitDy=0;exitPerimeter=0;entryX=0.5;entryY=1;entryDx=0;entryDy=0;" parent="XqVMcMZKZbUYrJJZnUzj-1" source="XqVMcMZKZbUYrJJZnUzj-14" target="XqVMcMZKZbUYrJJZnUzj-9" edge="1">
          <mxGeometry relative="1" as="geometry" />
        </mxCell>
        <mxCell id="XqVMcMZKZbUYrJJZnUzj-14" value="Valid?" style="strokeWidth=2;html=1;shape=mxgraph.flowchart.decision;whiteSpace=wrap;" parent="XqVMcMZKZbUYrJJZnUzj-1" vertex="1">
          <mxGeometry x="815" y="520" width="100" height="70" as="geometry" />
        </mxCell>
        <mxCell id="XqVMcMZKZbUYrJJZnUzj-33" style="edgeStyle=orthogonalEdgeStyle;rounded=0;orthogonalLoop=1;jettySize=auto;html=1;exitX=0.5;exitY=1;exitDx=0;exitDy=0;entryX=0.5;entryY=0;entryDx=0;entryDy=0;" parent="XqVMcMZKZbUYrJJZnUzj-1" source="XqVMcMZKZbUYrJJZnUzj-6" target="XqVMcMZKZbUYrJJZnUzj-9" edge="1">
          <mxGeometry relative="1" as="geometry" />
        </mxCell>
        <mxCell id="tWewbr1Fzq-GvY331RSA-1" value="" style="endArrow=classic;html=1;rounded=0;exitX=0.5;exitY=1;exitDx=0;exitDy=0;exitPerimeter=0;entryX=0.5;entryY=0;entryDx=0;entryDy=0;" edge="1" parent="XqVMcMZKZbUYrJJZnUzj-1" source="XqVMcMZKZbUYrJJZnUzj-14" target="lVPjKF7K5_WunW_nWloG-0">
          <mxGeometry width="50" height="50" relative="1" as="geometry">
            <mxPoint x="770" y="580" as="sourcePoint" />
            <mxPoint x="820" y="530" as="targetPoint" />
          </mxGeometry>
        </mxCell>
        <mxCell id="Q8aPV83fSdYSmff--pMD-0" value="" style="group" connectable="0" vertex="1" parent="XqVMcMZKZbUYrJJZnUzj-1">
          <mxGeometry x="-740" y="250" width="400" height="1630" as="geometry" />
        </mxCell>
        <mxCell id="Q8aPV83fSdYSmff--pMD-1" value="User" style="swimlane;whiteSpace=wrap;html=1;startSize=23;" vertex="1" parent="Q8aPV83fSdYSmff--pMD-0">
          <mxGeometry width="200" height="1630" as="geometry" />
        </mxCell>
        <mxCell id="Q8aPV83fSdYSmff--pMD-2" value="" style="ellipse;html=1;shape=startState;fillColor=#000000;strokeColor=#ff0000;" vertex="1" parent="Q8aPV83fSdYSmff--pMD-1">
          <mxGeometry x="85" y="30" width="30" height="30" as="geometry" />
        </mxCell>
        <mxCell id="Q8aPV83fSdYSmff--pMD-3" value="" style="edgeStyle=orthogonalEdgeStyle;html=1;verticalAlign=bottom;endArrow=open;endSize=8;strokeColor=#ff0000;rounded=0;entryX=0.5;entryY=0;entryDx=0;entryDy=0;" edge="1" parent="Q8aPV83fSdYSmff--pMD-1" source="Q8aPV83fSdYSmff--pMD-2" target="Q8aPV83fSdYSmff--pMD-4">
          <mxGeometry relative="1" as="geometry">
            <mxPoint x="100" y="120" as="targetPoint" />
          </mxGeometry>
        </mxCell>
        <mxCell id="Q8aPV83fSdYSmff--pMD-4" value="Navigate to web" style="html=1;whiteSpace=wrap;" vertex="1" parent="Q8aPV83fSdYSmff--pMD-1">
          <mxGeometry x="45" y="98" width="110" height="50" as="geometry" />
        </mxCell>
        <mxCell id="Q8aPV83fSdYSmff--pMD-5" value="" style="edgeStyle=orthogonalEdgeStyle;rounded=0;orthogonalLoop=1;jettySize=auto;html=1;" edge="1" parent="Q8aPV83fSdYSmff--pMD-1" source="Q8aPV83fSdYSmff--pMD-6" target="Q8aPV83fSdYSmff--pMD-7">
          <mxGeometry relative="1" as="geometry" />
        </mxCell>
        <mxCell id="Q8aPV83fSdYSmff--pMD-6" value="Reservation" style="html=1;whiteSpace=wrap;" vertex="1" parent="Q8aPV83fSdYSmff--pMD-1">
          <mxGeometry x="45" y="370" width="110" height="50" as="geometry" />
        </mxCell>
        <mxCell id="Q8aPV83fSdYSmff--pMD-7" value="Enter Required Reserve Details" style="html=1;whiteSpace=wrap;" vertex="1" parent="Q8aPV83fSdYSmff--pMD-1">
          <mxGeometry x="45" y="450" width="110" height="50" as="geometry" />
        </mxCell>
        <mxCell id="Q8aPV83fSdYSmff--pMD-8" value="Choose Room" style="html=1;whiteSpace=wrap;" vertex="1" parent="Q8aPV83fSdYSmff--pMD-1">
          <mxGeometry x="45" y="527" width="110" height="50" as="geometry" />
        </mxCell>
        <mxCell id="Q8aPV83fSdYSmff--pMD-9" value="" style="edgeStyle=orthogonalEdgeStyle;rounded=0;orthogonalLoop=1;jettySize=auto;html=1;" edge="1" parent="Q8aPV83fSdYSmff--pMD-1" source="Q8aPV83fSdYSmff--pMD-10" target="Q8aPV83fSdYSmff--pMD-11">
          <mxGeometry relative="1" as="geometry" />
        </mxCell>
        <mxCell id="Q8aPV83fSdYSmff--pMD-10" value="Fill Meeting &lt;br&gt;Details Form" style="html=1;whiteSpace=wrap;" vertex="1" parent="Q8aPV83fSdYSmff--pMD-1">
          <mxGeometry x="45" y="640" width="110" height="50" as="geometry" />
        </mxCell>
        <mxCell id="Q8aPV83fSdYSmff--pMD-11" value="Create Event" style="html=1;whiteSpace=wrap;" vertex="1" parent="Q8aPV83fSdYSmff--pMD-1">
          <mxGeometry x="45" y="720" width="110" height="50" as="geometry" />
        </mxCell>
        <mxCell id="Q8aPV83fSdYSmff--pMD-21" value="Enter Email and password" style="html=1;whiteSpace=wrap;" vertex="1" parent="Q8aPV83fSdYSmff--pMD-1">
          <mxGeometry x="45" y="180" width="110" height="50" as="geometry" />
        </mxCell>
        <mxCell id="Q8aPV83fSdYSmff--pMD-22" style="edgeStyle=orthogonalEdgeStyle;rounded=0;orthogonalLoop=1;jettySize=auto;html=1;exitX=0.5;exitY=1;exitDx=0;exitDy=0;entryX=0.5;entryY=0;entryDx=0;entryDy=0;" edge="1" parent="Q8aPV83fSdYSmff--pMD-1" source="Q8aPV83fSdYSmff--pMD-4" target="Q8aPV83fSdYSmff--pMD-21">
          <mxGeometry relative="1" as="geometry" />
        </mxCell>
        <mxCell id="Q8aPV83fSdYSmff--pMD-120" value="Edit Own Profile" style="html=1;whiteSpace=wrap;" vertex="1" parent="Q8aPV83fSdYSmff--pMD-1">
          <mxGeometry x="45" y="890" width="110" height="50" as="geometry" />
        </mxCell>
        <mxCell id="Q8aPV83fSdYSmff--pMD-122" value="Logout" style="html=1;whiteSpace=wrap;" vertex="1" parent="Q8aPV83fSdYSmff--pMD-1">
          <mxGeometry x="45" y="1090" width="110" height="50" as="geometry" />
        </mxCell>
        <mxCell id="Q8aPV83fSdYSmff--pMD-24" value="System" style="swimlane;whiteSpace=wrap;html=1;" vertex="1" parent="Q8aPV83fSdYSmff--pMD-0">
          <mxGeometry x="200" width="200" height="1630" as="geometry" />
        </mxCell>
        <mxCell id="Q8aPV83fSdYSmff--pMD-25" value="Yes" style="text;html=1;strokeColor=none;fillColor=none;align=center;verticalAlign=middle;whiteSpace=wrap;rounded=0;" vertex="1" parent="Q8aPV83fSdYSmff--pMD-24">
          <mxGeometry x="110" y="340" width="60" height="30" as="geometry" />
        </mxCell>
        <mxCell id="Q8aPV83fSdYSmff--pMD-26" value="No" style="text;html=1;strokeColor=none;fillColor=none;align=center;verticalAlign=middle;whiteSpace=wrap;rounded=0;" vertex="1" parent="Q8aPV83fSdYSmff--pMD-24">
          <mxGeometry y="270" width="60" height="30" as="geometry" />
        </mxCell>
        <mxCell id="Q8aPV83fSdYSmff--pMD-27" value="Display index" style="html=1;whiteSpace=wrap;" vertex="1" parent="Q8aPV83fSdYSmff--pMD-24">
          <mxGeometry x="50" y="370" width="110" height="50" as="geometry" />
        </mxCell>
        <mxCell id="Q8aPV83fSdYSmff--pMD-28" value="Display Available Rooms" style="html=1;whiteSpace=wrap;" vertex="1" parent="Q8aPV83fSdYSmff--pMD-24">
          <mxGeometry x="50" y="450" width="110" height="50" as="geometry" />
        </mxCell>
        <mxCell id="Q8aPV83fSdYSmff--pMD-29" value="Display Meeting Details Form" style="html=1;whiteSpace=wrap;" vertex="1" parent="Q8aPV83fSdYSmff--pMD-24">
          <mxGeometry x="50" y="580" width="110" height="50" as="geometry" />
        </mxCell>
        <mxCell id="Q8aPV83fSdYSmff--pMD-30" value="" style="edgeStyle=orthogonalEdgeStyle;rounded=0;orthogonalLoop=1;jettySize=auto;html=1;" edge="1" parent="Q8aPV83fSdYSmff--pMD-24" source="Q8aPV83fSdYSmff--pMD-31" target="Q8aPV83fSdYSmff--pMD-32">
          <mxGeometry relative="1" as="geometry" />
        </mxCell>
        <mxCell id="Q8aPV83fSdYSmff--pMD-31" value="Meeting Validated?" style="strokeWidth=2;html=1;shape=mxgraph.flowchart.decision;whiteSpace=wrap;fillColor=default;strokeColor=default;" vertex="1" parent="Q8aPV83fSdYSmff--pMD-24">
          <mxGeometry x="50" y="710" width="100" height="70" as="geometry" />
        </mxCell>
        <mxCell id="Q8aPV83fSdYSmff--pMD-32" value="Room Booked" style="html=1;whiteSpace=wrap;" vertex="1" parent="Q8aPV83fSdYSmff--pMD-24">
          <mxGeometry x="45" y="810" width="110" height="50" as="geometry" />
        </mxCell>
        <mxCell id="Q8aPV83fSdYSmff--pMD-33" value="Display Reservation" style="html=1;whiteSpace=wrap;" vertex="1" parent="Q8aPV83fSdYSmff--pMD-24">
          <mxGeometry x="37.5" y="890" width="125" height="50" as="geometry" />
        </mxCell>
        <mxCell id="Q8aPV83fSdYSmff--pMD-34" style="edgeStyle=orthogonalEdgeStyle;rounded=0;orthogonalLoop=1;jettySize=auto;html=1;exitX=0.5;exitY=1;exitDx=0;exitDy=0;entryX=0.5;entryY=0;entryDx=0;entryDy=0;" edge="1" parent="Q8aPV83fSdYSmff--pMD-24" source="Q8aPV83fSdYSmff--pMD-32" target="Q8aPV83fSdYSmff--pMD-33">
          <mxGeometry relative="1" as="geometry" />
        </mxCell>
        <mxCell id="Q8aPV83fSdYSmff--pMD-35" value="Yes" style="text;html=1;strokeColor=none;fillColor=none;align=center;verticalAlign=middle;whiteSpace=wrap;rounded=0;" vertex="1" parent="Q8aPV83fSdYSmff--pMD-24">
          <mxGeometry x="50" y="780" width="60" height="30" as="geometry" />
        </mxCell>
        <mxCell id="Q8aPV83fSdYSmff--pMD-36" value="" style="endArrow=classic;html=1;rounded=0;exitX=1;exitY=0.5;exitDx=0;exitDy=0;entryX=1;entryY=0.5;entryDx=0;entryDy=0;exitPerimeter=0;" edge="1" parent="Q8aPV83fSdYSmff--pMD-24" source="Q8aPV83fSdYSmff--pMD-31" target="Q8aPV83fSdYSmff--pMD-29">
          <mxGeometry width="50" height="50" relative="1" as="geometry">
            <mxPoint x="80" y="710" as="sourcePoint" />
            <mxPoint x="130" y="660" as="targetPoint" />
            <Array as="points">
              <mxPoint x="190" y="745" />
              <mxPoint x="190" y="605" />
            </Array>
          </mxGeometry>
        </mxCell>
        <mxCell id="Q8aPV83fSdYSmff--pMD-37" value="No" style="text;html=1;strokeColor=none;fillColor=none;align=center;verticalAlign=middle;whiteSpace=wrap;rounded=0;" vertex="1" parent="Q8aPV83fSdYSmff--pMD-24">
          <mxGeometry x="140" y="710" width="60" height="30" as="geometry" />
        </mxCell>
        <mxCell id="Q8aPV83fSdYSmff--pMD-48" value="Validation" style="html=1;whiteSpace=wrap;" vertex="1" parent="Q8aPV83fSdYSmff--pMD-24">
          <mxGeometry x="50" y="180" width="110" height="50" as="geometry" />
        </mxCell>
        <mxCell id="Q8aPV83fSdYSmff--pMD-49" value="Valid?" style="strokeWidth=2;html=1;shape=mxgraph.flowchart.decision;whiteSpace=wrap;fillColor=default;strokeColor=default;" vertex="1" parent="Q8aPV83fSdYSmff--pMD-24">
          <mxGeometry x="55" y="260" width="100" height="70" as="geometry" />
        </mxCell>
        <mxCell id="Q8aPV83fSdYSmff--pMD-50" style="edgeStyle=orthogonalEdgeStyle;rounded=0;orthogonalLoop=1;jettySize=auto;html=1;exitX=0.5;exitY=1;exitDx=0;exitDy=0;entryX=0.5;entryY=0;entryDx=0;entryDy=0;entryPerimeter=0;" edge="1" parent="Q8aPV83fSdYSmff--pMD-24" source="Q8aPV83fSdYSmff--pMD-48" target="Q8aPV83fSdYSmff--pMD-49">
          <mxGeometry relative="1" as="geometry" />
        </mxCell>
        <mxCell id="Q8aPV83fSdYSmff--pMD-51" style="edgeStyle=orthogonalEdgeStyle;rounded=0;orthogonalLoop=1;jettySize=auto;html=1;exitX=0.5;exitY=1;exitDx=0;exitDy=0;exitPerimeter=0;entryX=0.5;entryY=0;entryDx=0;entryDy=0;" edge="1" parent="Q8aPV83fSdYSmff--pMD-24" source="Q8aPV83fSdYSmff--pMD-49" target="Q8aPV83fSdYSmff--pMD-27">
          <mxGeometry relative="1" as="geometry" />
        </mxCell>
        <mxCell id="Q8aPV83fSdYSmff--pMD-121" value="Profile Edited" style="html=1;whiteSpace=wrap;" vertex="1" parent="Q8aPV83fSdYSmff--pMD-24">
          <mxGeometry x="37.5" y="980" width="125" height="50" as="geometry" />
        </mxCell>
        <mxCell id="Q8aPV83fSdYSmff--pMD-127" value="" style="edgeStyle=orthogonalEdgeStyle;rounded=0;orthogonalLoop=1;jettySize=auto;html=1;" edge="1" parent="Q8aPV83fSdYSmff--pMD-24" source="Q8aPV83fSdYSmff--pMD-123" target="Q8aPV83fSdYSmff--pMD-124">
          <mxGeometry relative="1" as="geometry" />
        </mxCell>
        <mxCell id="Q8aPV83fSdYSmff--pMD-123" value="Logged out" style="html=1;whiteSpace=wrap;" vertex="1" parent="Q8aPV83fSdYSmff--pMD-24">
          <mxGeometry x="37.5" y="1180" width="125" height="50" as="geometry" />
        </mxCell>
        <mxCell id="Q8aPV83fSdYSmff--pMD-128" value="" style="edgeStyle=orthogonalEdgeStyle;rounded=0;orthogonalLoop=1;jettySize=auto;html=1;" edge="1" parent="Q8aPV83fSdYSmff--pMD-24" source="Q8aPV83fSdYSmff--pMD-124" target="Q8aPV83fSdYSmff--pMD-125">
          <mxGeometry relative="1" as="geometry" />
        </mxCell>
        <mxCell id="Q8aPV83fSdYSmff--pMD-124" value="Display Login" style="html=1;whiteSpace=wrap;" vertex="1" parent="Q8aPV83fSdYSmff--pMD-24">
          <mxGeometry x="37.5" y="1270" width="125" height="50" as="geometry" />
        </mxCell>
        <mxCell id="Q8aPV83fSdYSmff--pMD-125" value="" style="ellipse;html=1;shape=endState;fillColor=#000000;strokeColor=#ff0000;" vertex="1" parent="Q8aPV83fSdYSmff--pMD-24">
          <mxGeometry x="85" y="1360" width="30" height="30" as="geometry" />
        </mxCell>
        <mxCell id="Q8aPV83fSdYSmff--pMD-57" style="edgeStyle=orthogonalEdgeStyle;rounded=0;orthogonalLoop=1;jettySize=auto;html=1;exitX=0;exitY=0.5;exitDx=0;exitDy=0;entryX=1;entryY=0.5;entryDx=0;entryDy=0;" edge="1" parent="Q8aPV83fSdYSmff--pMD-0" source="Q8aPV83fSdYSmff--pMD-27" target="Q8aPV83fSdYSmff--pMD-6">
          <mxGeometry relative="1" as="geometry" />
        </mxCell>
        <mxCell id="Q8aPV83fSdYSmff--pMD-58" value="" style="edgeStyle=orthogonalEdgeStyle;rounded=0;orthogonalLoop=1;jettySize=auto;html=1;" edge="1" parent="Q8aPV83fSdYSmff--pMD-0" source="Q8aPV83fSdYSmff--pMD-7" target="Q8aPV83fSdYSmff--pMD-28">
          <mxGeometry relative="1" as="geometry" />
        </mxCell>
        <mxCell id="Q8aPV83fSdYSmff--pMD-59" value="" style="endArrow=classic;html=1;rounded=0;exitX=0.5;exitY=1;exitDx=0;exitDy=0;entryX=1;entryY=0.5;entryDx=0;entryDy=0;" edge="1" parent="Q8aPV83fSdYSmff--pMD-0" source="Q8aPV83fSdYSmff--pMD-28" target="Q8aPV83fSdYSmff--pMD-8">
          <mxGeometry width="50" height="50" relative="1" as="geometry">
            <mxPoint x="250" y="580" as="sourcePoint" />
            <mxPoint x="300" y="530" as="targetPoint" />
            <Array as="points">
              <mxPoint x="305" y="552" />
            </Array>
          </mxGeometry>
        </mxCell>
        <mxCell id="Q8aPV83fSdYSmff--pMD-60" value="" style="endArrow=classic;html=1;rounded=0;entryX=0;entryY=0.5;entryDx=0;entryDy=0;exitX=0.5;exitY=1;exitDx=0;exitDy=0;" edge="1" parent="Q8aPV83fSdYSmff--pMD-0" source="Q8aPV83fSdYSmff--pMD-8" target="Q8aPV83fSdYSmff--pMD-29">
          <mxGeometry width="50" height="50" relative="1" as="geometry">
            <mxPoint x="240" y="570" as="sourcePoint" />
            <mxPoint x="290" y="520" as="targetPoint" />
            <Array as="points">
              <mxPoint x="100" y="605" />
            </Array>
          </mxGeometry>
        </mxCell>
        <mxCell id="Q8aPV83fSdYSmff--pMD-61" value="" style="endArrow=classic;html=1;rounded=0;exitX=0.5;exitY=1;exitDx=0;exitDy=0;entryX=1;entryY=0.5;entryDx=0;entryDy=0;" edge="1" parent="Q8aPV83fSdYSmff--pMD-0" source="Q8aPV83fSdYSmff--pMD-29" target="Q8aPV83fSdYSmff--pMD-10">
          <mxGeometry width="50" height="50" relative="1" as="geometry">
            <mxPoint x="220" y="670" as="sourcePoint" />
            <mxPoint x="270" y="620" as="targetPoint" />
            <Array as="points">
              <mxPoint x="305" y="665" />
            </Array>
          </mxGeometry>
        </mxCell>
        <mxCell id="Q8aPV83fSdYSmff--pMD-62" value="" style="edgeStyle=orthogonalEdgeStyle;rounded=0;orthogonalLoop=1;jettySize=auto;html=1;" edge="1" parent="Q8aPV83fSdYSmff--pMD-0" source="Q8aPV83fSdYSmff--pMD-11" target="Q8aPV83fSdYSmff--pMD-31">
          <mxGeometry relative="1" as="geometry" />
        </mxCell>
        <mxCell id="Q8aPV83fSdYSmff--pMD-63" value="" style="edgeStyle=orthogonalEdgeStyle;rounded=0;orthogonalLoop=1;jettySize=auto;html=1;" edge="1" parent="Q8aPV83fSdYSmff--pMD-0" source="Q8aPV83fSdYSmff--pMD-33">
          <mxGeometry relative="1" as="geometry">
            <mxPoint x="155" y="915" as="targetPoint" />
          </mxGeometry>
        </mxCell>
        <mxCell id="Q8aPV83fSdYSmff--pMD-70" style="edgeStyle=orthogonalEdgeStyle;rounded=0;orthogonalLoop=1;jettySize=auto;html=1;exitX=1;exitY=0.5;exitDx=0;exitDy=0;entryX=0;entryY=0.5;entryDx=0;entryDy=0;" edge="1" parent="Q8aPV83fSdYSmff--pMD-0" source="Q8aPV83fSdYSmff--pMD-21" target="Q8aPV83fSdYSmff--pMD-48">
          <mxGeometry relative="1" as="geometry" />
        </mxCell>
        <mxCell id="Q8aPV83fSdYSmff--pMD-71" style="edgeStyle=orthogonalEdgeStyle;rounded=0;orthogonalLoop=1;jettySize=auto;html=1;exitX=0;exitY=0.5;exitDx=0;exitDy=0;exitPerimeter=0;entryX=0.5;entryY=1;entryDx=0;entryDy=0;" edge="1" parent="Q8aPV83fSdYSmff--pMD-0" source="Q8aPV83fSdYSmff--pMD-49" target="Q8aPV83fSdYSmff--pMD-21">
          <mxGeometry relative="1" as="geometry" />
        </mxCell>
        <mxCell id="Q8aPV83fSdYSmff--pMD-129" value="" style="endArrow=classic;html=1;rounded=0;exitX=0.5;exitY=1;exitDx=0;exitDy=0;entryX=0;entryY=0.5;entryDx=0;entryDy=0;" edge="1" parent="Q8aPV83fSdYSmff--pMD-0" source="Q8aPV83fSdYSmff--pMD-120" target="Q8aPV83fSdYSmff--pMD-121">
          <mxGeometry width="50" height="50" relative="1" as="geometry">
            <mxPoint x="380" y="1060" as="sourcePoint" />
            <mxPoint x="430" y="1010" as="targetPoint" />
            <Array as="points">
              <mxPoint x="100" y="1005" />
            </Array>
          </mxGeometry>
        </mxCell>
        <mxCell id="Q8aPV83fSdYSmff--pMD-130" value="" style="endArrow=classic;html=1;rounded=0;exitX=0.5;exitY=1;exitDx=0;exitDy=0;entryX=1;entryY=0.5;entryDx=0;entryDy=0;" edge="1" parent="Q8aPV83fSdYSmff--pMD-0" source="Q8aPV83fSdYSmff--pMD-121" target="Q8aPV83fSdYSmff--pMD-122">
          <mxGeometry width="50" height="50" relative="1" as="geometry">
            <mxPoint x="380" y="1060" as="sourcePoint" />
            <mxPoint x="430" y="1010" as="targetPoint" />
            <Array as="points">
              <mxPoint x="300" y="1115" />
            </Array>
          </mxGeometry>
        </mxCell>
        <mxCell id="Q8aPV83fSdYSmff--pMD-131" value="" style="endArrow=classic;html=1;rounded=0;exitX=0.5;exitY=1;exitDx=0;exitDy=0;entryX=0;entryY=0.5;entryDx=0;entryDy=0;" edge="1" parent="Q8aPV83fSdYSmff--pMD-0" source="Q8aPV83fSdYSmff--pMD-122" target="Q8aPV83fSdYSmff--pMD-123">
          <mxGeometry width="50" height="50" relative="1" as="geometry">
            <mxPoint x="380" y="1230" as="sourcePoint" />
            <mxPoint x="430" y="1180" as="targetPoint" />
            <Array as="points">
              <mxPoint x="100" y="1205" />
            </Array>
          </mxGeometry>
        </mxCell>
        <mxCell id="Q8aPV83fSdYSmff--pMD-73" value="" style="group" connectable="0" vertex="1" parent="XqVMcMZKZbUYrJJZnUzj-1">
          <mxGeometry x="-230" y="250" width="400" height="1630" as="geometry" />
        </mxCell>
        <mxCell id="Q8aPV83fSdYSmff--pMD-74" value="User" style="swimlane;whiteSpace=wrap;html=1;" vertex="1" parent="Q8aPV83fSdYSmff--pMD-73">
          <mxGeometry width="200" height="1630" as="geometry" />
        </mxCell>
        <mxCell id="Q8aPV83fSdYSmff--pMD-77" value="Edit User Details" style="html=1;whiteSpace=wrap;" vertex="1" parent="Q8aPV83fSdYSmff--pMD-74">
          <mxGeometry x="50" y="470" width="110" height="50" as="geometry" />
        </mxCell>
        <mxCell id="Q8aPV83fSdYSmff--pMD-78" value="Delete User" style="html=1;whiteSpace=wrap;" vertex="1" parent="Q8aPV83fSdYSmff--pMD-74">
          <mxGeometry x="50" y="620" width="110" height="50" as="geometry" />
        </mxCell>
        <mxCell id="Q8aPV83fSdYSmff--pMD-79" value="Edit Own Profile" style="html=1;whiteSpace=wrap;" vertex="1" parent="Q8aPV83fSdYSmff--pMD-74">
          <mxGeometry x="50" y="740" width="110" height="50" as="geometry" />
        </mxCell>
        <mxCell id="Q8aPV83fSdYSmff--pMD-80" value="Logout" style="html=1;whiteSpace=wrap;" vertex="1" parent="Q8aPV83fSdYSmff--pMD-74">
          <mxGeometry x="50" y="880" width="110" height="50" as="geometry" />
        </mxCell>
        <mxCell id="Q8aPV83fSdYSmff--pMD-81" value="System" style="swimlane;whiteSpace=wrap;html=1;" vertex="1" parent="Q8aPV83fSdYSmff--pMD-73">
          <mxGeometry x="200" width="200" height="1630" as="geometry" />
        </mxCell>
        <mxCell id="Q8aPV83fSdYSmff--pMD-83" value="" style="edgeStyle=orthogonalEdgeStyle;rounded=0;orthogonalLoop=1;jettySize=auto;html=1;entryX=0.5;entryY=0;entryDx=0;entryDy=0;" edge="1" parent="Q8aPV83fSdYSmff--pMD-81">
          <mxGeometry relative="1" as="geometry">
            <mxPoint x="100" y="100" as="targetPoint" />
            <mxPoint x="100" y="70" as="sourcePoint" />
          </mxGeometry>
        </mxCell>
        <mxCell id="Q8aPV83fSdYSmff--pMD-84" value="" style="edgeStyle=orthogonalEdgeStyle;rounded=0;orthogonalLoop=1;jettySize=auto;html=1;" edge="1" parent="Q8aPV83fSdYSmff--pMD-81">
          <mxGeometry relative="1" as="geometry">
            <mxPoint x="100" y="150" as="sourcePoint" />
            <mxPoint x="100" y="180" as="targetPoint" />
          </mxGeometry>
        </mxCell>
        <mxCell id="Q8aPV83fSdYSmff--pMD-88" value="" style="edgeStyle=orthogonalEdgeStyle;rounded=0;orthogonalLoop=1;jettySize=auto;html=1;" edge="1" parent="Q8aPV83fSdYSmff--pMD-81">
          <mxGeometry relative="1" as="geometry">
            <mxPoint x="100" y="440" as="sourcePoint" />
            <mxPoint x="100" y="470" as="targetPoint" />
          </mxGeometry>
        </mxCell>
        <mxCell id="Q8aPV83fSdYSmff--pMD-90" value="" style="endArrow=classic;html=1;rounded=0;entryX=1;entryY=0.5;entryDx=0;entryDy=0;exitX=1;exitY=0.5;exitDx=0;exitDy=0;exitPerimeter=0;" edge="1" parent="Q8aPV83fSdYSmff--pMD-81">
          <mxGeometry width="50" height="50" relative="1" as="geometry">
            <mxPoint x="150" y="405" as="sourcePoint" />
            <mxPoint x="162.5" y="205" as="targetPoint" />
            <Array as="points">
              <mxPoint x="190" y="405" />
              <mxPoint x="190" y="205" />
            </Array>
          </mxGeometry>
        </mxCell>
        <mxCell id="Q8aPV83fSdYSmff--pMD-91" value="No" style="text;html=1;strokeColor=none;fillColor=none;align=center;verticalAlign=middle;whiteSpace=wrap;rounded=0;" vertex="1" parent="Q8aPV83fSdYSmff--pMD-81">
          <mxGeometry x="130" y="370" width="60" height="30" as="geometry" />
        </mxCell>
        <mxCell id="Q8aPV83fSdYSmff--pMD-93" value="Yes" style="text;html=1;strokeColor=none;fillColor=none;align=center;verticalAlign=middle;whiteSpace=wrap;rounded=0;" vertex="1" parent="Q8aPV83fSdYSmff--pMD-81">
          <mxGeometry x="90" y="440" width="60" height="30" as="geometry" />
        </mxCell>
        <mxCell id="Q8aPV83fSdYSmff--pMD-94" value="User Details Edited" style="html=1;whiteSpace=wrap;" vertex="1" parent="Q8aPV83fSdYSmff--pMD-81">
          <mxGeometry x="37.5" y="560" width="125" height="50" as="geometry" />
        </mxCell>
        <mxCell id="Q8aPV83fSdYSmff--pMD-95" value="User Deleted" style="html=1;whiteSpace=wrap;" vertex="1" parent="Q8aPV83fSdYSmff--pMD-81">
          <mxGeometry x="37.5" y="680" width="125" height="50" as="geometry" />
        </mxCell>
        <mxCell id="Q8aPV83fSdYSmff--pMD-96" value="Profile Edited" style="html=1;whiteSpace=wrap;" vertex="1" parent="Q8aPV83fSdYSmff--pMD-81">
          <mxGeometry x="37.5" y="810" width="125" height="50" as="geometry" />
        </mxCell>
        <mxCell id="Q8aPV83fSdYSmff--pMD-97" value="" style="edgeStyle=orthogonalEdgeStyle;rounded=0;orthogonalLoop=1;jettySize=auto;html=1;" edge="1" parent="Q8aPV83fSdYSmff--pMD-81" source="Q8aPV83fSdYSmff--pMD-98" target="Q8aPV83fSdYSmff--pMD-100">
          <mxGeometry relative="1" as="geometry" />
        </mxCell>
        <mxCell id="Q8aPV83fSdYSmff--pMD-98" value="Logged out" style="html=1;whiteSpace=wrap;" vertex="1" parent="Q8aPV83fSdYSmff--pMD-81">
          <mxGeometry x="37.5" y="950" width="125" height="50" as="geometry" />
        </mxCell>
        <mxCell id="Q8aPV83fSdYSmff--pMD-99" value="" style="edgeStyle=orthogonalEdgeStyle;rounded=0;orthogonalLoop=1;jettySize=auto;html=1;" edge="1" parent="Q8aPV83fSdYSmff--pMD-81" source="Q8aPV83fSdYSmff--pMD-100" target="Q8aPV83fSdYSmff--pMD-101">
          <mxGeometry relative="1" as="geometry" />
        </mxCell>
        <mxCell id="Q8aPV83fSdYSmff--pMD-100" value="Display Login" style="html=1;whiteSpace=wrap;" vertex="1" parent="Q8aPV83fSdYSmff--pMD-81">
          <mxGeometry x="37.5" y="1040" width="125" height="50" as="geometry" />
        </mxCell>
        <mxCell id="Q8aPV83fSdYSmff--pMD-101" value="" style="ellipse;html=1;shape=endState;fillColor=#000000;strokeColor=#ff0000;" vertex="1" parent="Q8aPV83fSdYSmff--pMD-81">
          <mxGeometry x="85" y="1140" width="30" height="30" as="geometry" />
        </mxCell>
        <mxCell id="Q8aPV83fSdYSmff--pMD-102" value="" style="edgeStyle=orthogonalEdgeStyle;rounded=0;orthogonalLoop=1;jettySize=auto;html=1;" edge="1" parent="Q8aPV83fSdYSmff--pMD-73">
          <mxGeometry relative="1" as="geometry">
            <mxPoint x="237.5" y="205" as="sourcePoint" />
            <mxPoint x="155" y="205" as="targetPoint" />
          </mxGeometry>
        </mxCell>
        <mxCell id="Q8aPV83fSdYSmff--pMD-103" value="" style="endArrow=classic;html=1;rounded=0;exitX=0.5;exitY=1;exitDx=0;exitDy=0;entryX=0;entryY=0.5;entryDx=0;entryDy=0;" edge="1" parent="Q8aPV83fSdYSmff--pMD-73">
          <mxGeometry width="50" height="50" relative="1" as="geometry">
            <mxPoint x="100" y="230" as="sourcePoint" />
            <mxPoint x="237.5" y="285" as="targetPoint" />
            <Array as="points">
              <mxPoint x="100" y="285" />
            </Array>
          </mxGeometry>
        </mxCell>
        <mxCell id="Q8aPV83fSdYSmff--pMD-104" value="" style="endArrow=classic;html=1;rounded=0;exitX=0.5;exitY=1;exitDx=0;exitDy=0;entryX=1;entryY=0.5;entryDx=0;entryDy=0;" edge="1" parent="Q8aPV83fSdYSmff--pMD-73">
          <mxGeometry width="50" height="50" relative="1" as="geometry">
            <mxPoint x="300" y="310" as="sourcePoint" />
            <mxPoint x="155" y="345" as="targetPoint" />
            <Array as="points">
              <mxPoint x="300" y="345" />
            </Array>
          </mxGeometry>
        </mxCell>
        <mxCell id="Q8aPV83fSdYSmff--pMD-105" value="" style="endArrow=classic;html=1;rounded=0;entryX=0;entryY=0.5;entryDx=0;entryDy=0;entryPerimeter=0;exitX=0.5;exitY=1;exitDx=0;exitDy=0;" edge="1" parent="Q8aPV83fSdYSmff--pMD-73">
          <mxGeometry width="50" height="50" relative="1" as="geometry">
            <mxPoint x="100" y="370" as="sourcePoint" />
            <mxPoint x="250" y="405" as="targetPoint" />
            <Array as="points">
              <mxPoint x="100" y="405" />
            </Array>
          </mxGeometry>
        </mxCell>
        <mxCell id="Q8aPV83fSdYSmff--pMD-106" value="" style="edgeStyle=orthogonalEdgeStyle;rounded=0;orthogonalLoop=1;jettySize=auto;html=1;" edge="1" parent="Q8aPV83fSdYSmff--pMD-73" target="Q8aPV83fSdYSmff--pMD-77">
          <mxGeometry relative="1" as="geometry">
            <mxPoint x="237.5" y="495" as="sourcePoint" />
          </mxGeometry>
        </mxCell>
        <mxCell id="Q8aPV83fSdYSmff--pMD-107" value="" style="endArrow=classic;html=1;rounded=0;exitX=0.5;exitY=1;exitDx=0;exitDy=0;entryX=0;entryY=0.5;entryDx=0;entryDy=0;" edge="1" parent="Q8aPV83fSdYSmff--pMD-73" source="Q8aPV83fSdYSmff--pMD-77" target="Q8aPV83fSdYSmff--pMD-94">
          <mxGeometry width="50" height="50" relative="1" as="geometry">
            <mxPoint x="170" y="580" as="sourcePoint" />
            <mxPoint x="220" y="530" as="targetPoint" />
            <Array as="points">
              <mxPoint x="105" y="585" />
            </Array>
          </mxGeometry>
        </mxCell>
        <mxCell id="Q8aPV83fSdYSmff--pMD-108" value="" style="endArrow=classic;html=1;rounded=0;exitX=0.5;exitY=1;exitDx=0;exitDy=0;entryX=1;entryY=0.5;entryDx=0;entryDy=0;" edge="1" parent="Q8aPV83fSdYSmff--pMD-73" source="Q8aPV83fSdYSmff--pMD-94" target="Q8aPV83fSdYSmff--pMD-78">
          <mxGeometry width="50" height="50" relative="1" as="geometry">
            <mxPoint x="170" y="580" as="sourcePoint" />
            <mxPoint x="220" y="530" as="targetPoint" />
            <Array as="points">
              <mxPoint x="300" y="645" />
            </Array>
          </mxGeometry>
        </mxCell>
        <mxCell id="Q8aPV83fSdYSmff--pMD-109" value="" style="endArrow=classic;html=1;rounded=0;exitX=0.5;exitY=1;exitDx=0;exitDy=0;entryX=0;entryY=0.5;entryDx=0;entryDy=0;" edge="1" parent="Q8aPV83fSdYSmff--pMD-73" source="Q8aPV83fSdYSmff--pMD-78" target="Q8aPV83fSdYSmff--pMD-95">
          <mxGeometry width="50" height="50" relative="1" as="geometry">
            <mxPoint x="170" y="750" as="sourcePoint" />
            <mxPoint x="220" y="700" as="targetPoint" />
            <Array as="points">
              <mxPoint x="105" y="705" />
            </Array>
          </mxGeometry>
        </mxCell>
        <mxCell id="Q8aPV83fSdYSmff--pMD-110" value="" style="endArrow=classic;html=1;rounded=0;exitX=0.5;exitY=1;exitDx=0;exitDy=0;entryX=1;entryY=0.5;entryDx=0;entryDy=0;" edge="1" parent="Q8aPV83fSdYSmff--pMD-73" source="Q8aPV83fSdYSmff--pMD-95" target="Q8aPV83fSdYSmff--pMD-79">
          <mxGeometry width="50" height="50" relative="1" as="geometry">
            <mxPoint x="170" y="750" as="sourcePoint" />
            <mxPoint x="220" y="700" as="targetPoint" />
            <Array as="points">
              <mxPoint x="300" y="765" />
            </Array>
          </mxGeometry>
        </mxCell>
        <mxCell id="Q8aPV83fSdYSmff--pMD-111" value="" style="endArrow=classic;html=1;rounded=0;exitX=0.5;exitY=1;exitDx=0;exitDy=0;entryX=0;entryY=0.5;entryDx=0;entryDy=0;" edge="1" parent="Q8aPV83fSdYSmff--pMD-73" source="Q8aPV83fSdYSmff--pMD-79" target="Q8aPV83fSdYSmff--pMD-96">
          <mxGeometry width="50" height="50" relative="1" as="geometry">
            <mxPoint x="250" y="830" as="sourcePoint" />
            <mxPoint x="300" y="780" as="targetPoint" />
            <Array as="points">
              <mxPoint x="105" y="835" />
            </Array>
          </mxGeometry>
        </mxCell>
        <mxCell id="Q8aPV83fSdYSmff--pMD-112" value="" style="endArrow=classic;html=1;rounded=0;exitX=0.5;exitY=1;exitDx=0;exitDy=0;entryX=1;entryY=0.5;entryDx=0;entryDy=0;" edge="1" parent="Q8aPV83fSdYSmff--pMD-73" source="Q8aPV83fSdYSmff--pMD-96" target="Q8aPV83fSdYSmff--pMD-80">
          <mxGeometry width="50" height="50" relative="1" as="geometry">
            <mxPoint x="340" y="980" as="sourcePoint" />
            <mxPoint x="390" y="930" as="targetPoint" />
            <Array as="points">
              <mxPoint x="300" y="905" />
            </Array>
          </mxGeometry>
        </mxCell>
        <mxCell id="Q8aPV83fSdYSmff--pMD-113" value="" style="endArrow=classic;html=1;rounded=0;exitX=0.5;exitY=1;exitDx=0;exitDy=0;entryX=0;entryY=0.5;entryDx=0;entryDy=0;" edge="1" parent="Q8aPV83fSdYSmff--pMD-73" source="Q8aPV83fSdYSmff--pMD-80" target="Q8aPV83fSdYSmff--pMD-98">
          <mxGeometry width="50" height="50" relative="1" as="geometry">
            <mxPoint x="340" y="1180" as="sourcePoint" />
            <mxPoint x="390" y="1130" as="targetPoint" />
            <Array as="points">
              <mxPoint x="105" y="975" />
            </Array>
          </mxGeometry>
        </mxCell>
      </root>
    </mxGraphModel>
  </diagram>
</mxfile>
